<?xml version="1.0" standalone="no"?>
<!DOCTYPE svg PUBLIC "-//W3C//DTD SVG 1.1//EN" "http://www.w3.org/Graphics/SVG/1.1/DTD/svg11.dtd" >
<svg xmlns="http://www.w3.org/2000/svg">
<metadata></metadata>
<defs>
<font id="alexis_mariemedium" horiz-adv-x="1155" >
<font-face units-per-em="2048" ascent="1638" descent="-410" />
<missing-glyph horiz-adv-x="518" />
<glyph horiz-adv-x="0" />
<glyph unicode="&#xd;" horiz-adv-x="681" />
<glyph unicode=" "  horiz-adv-x="518" />
<glyph unicode="&#x09;" horiz-adv-x="518" />
<glyph unicode="&#xa0;" horiz-adv-x="518" />
<glyph unicode="!" horiz-adv-x="366" d="M221 16.5q0 20.5 14.5 35t35 14.5t34.5 -14.5t14 -35t-14 -35t-34.5 -14.5t-35 14.5t-14.5 35zM221 225v1217q0 20 14.5 34.5t35 14.5t34.5 -14.5t14 -34.5v-1217q0 -20 -14 -34.5t-34.5 -14.5t-35 14.5t-14.5 34.5z" />
<glyph unicode="&#x22;" horiz-adv-x="425" d="M70 940q0 16 6 219q4 135 2 215q0 20 13 35.5t33.5 15.5t36 -13.5t15.5 -33.5q2 -84 -2 -221q-6 -205 -6 -217q0 -20 -14.5 -34.5t-35 -14.5t-34.5 14.5t-14 34.5zM274 946q0 72 3.5 217.5t3.5 216.5q0 20 14 35t34.5 15t35 -15t14.5 -35q0 -72 -3 -217t-3 -217 q0 -20 -14.5 -34.5t-35 -14.5t-35 14.5t-14.5 34.5z" />
<glyph unicode="#" horiz-adv-x="1130" d="M-45 484.5q0 19.5 14.5 35t34.5 15.5q123 2 221 4l90 354q-111 -2 -252 -4q-18 0 -33.5 14.5t-15.5 33.5t14.5 34.5t34.5 15.5q156 4 277 4l94 365q4 20 21.5 30.5t38 5t31 -22.5t3.5 -38l-86 -338q145 0 275 -2l76 338q4 20 20 31.5t36.5 6.5t32 -21.5t5.5 -36.5 l-70 -320q115 -2 219 -8q20 -2 33.5 -16.5t12.5 -35t-15 -33.5t-35 -13q-115 6 -237 8l-86 -354q141 -2 268 -9q20 -2 33.5 -16t12.5 -34.5t-15.5 -34t-34.5 -13.5q-137 6 -287 10l-98 -399q-4 -18 -21.5 -29.5t-37 -6.5t-31 22.5t-4.5 38.5l90 374q-131 2 -283 0l-90 -368 q-4 -18 -21.5 -29.5t-37 -6.5t-30.5 22.5t-5 37.5l84 344q-88 -2 -197 -4q-18 0 -33.5 14.5t-15.5 34zM326 539q152 2 282 0l84 354q-129 2 -276 2z" />
<glyph unicode="$" horiz-adv-x="1026" d="M14 494q2 20 16.5 34.5t35 12.5t35 -16.5t12.5 -35.5q-10 -186 87 -298.5t249 -139.5q4 -2 10 -2q0 18 8 762q-90 45 -129 68q-160 88 -186 186q-20 70 -1 133.5t67 107.5t108.5 72.5t128.5 40.5q8 2 16 2q-2 55 -8 105q-2 20 10 36.5t32.5 18.5t37 -10t18.5 -33 q6 -54 8 -113q123 -4 220.5 -66.5t136.5 -182.5q6 -18 -3.5 -37t-29 -25t-37.5 3t-25 30q-27 84 -97 130t-163 52q0 -57 -2 -164.5t-2 -154.5v-140q59 -29 101 -53q180 -102 256 -221q100 -158 41 -373q-35 -129 -148 -200q-115 -72 -260 -78l4 -138q0 -20 -13 -35.5 t-33.5 -15.5t-36 13.5t-15.5 33.5l-4 146l-29 4q-86 16 -161.5 58t-136 106.5t-92.5 162t-26 214.5zM246 1090q16 -57 141 -127q31 -18 82 -43v90q0 53 2 157.5t2 155.5h-2q-121 -20 -184.5 -87t-40.5 -146zM557 43q115 4 201 59.5t112 145.5q47 172 -30 295 q-61 98 -222 190l-53 29q-10 -627 -8 -719z" />
<glyph unicode="%" horiz-adv-x="1277" d="M420 -35.5q-6 19.5 2 37.5q92 182 364 672q244 436 357 669q10 18 29.5 25.5t37 -1.5t24.5 -28.5t-1 -35.5q-121 -242 -363 -676q-252 -451 -358 -670q-10 -18 -29.5 -24.5t-38 3t-24.5 29zM533.5 1077.5q9.5 55.5 60.5 87.5q55 33 106.5 18.5t75.5 -59.5q29 -51 4 -102 q-8 -19 -22 -35q-4 -8 -10 -12q-55 -45 -109.5 -41t-85.5 51q-29 37 -19.5 92.5zM893.5 182.5q9.5 55.5 60.5 87.5q55 33 106.5 18.5t76.5 -59.5q29 -51 4 -102q-9 -19 -23 -35q-4 -8 -10 -12q-55 -45 -109.5 -41t-85.5 51q-29 37 -19.5 92.5z" />
<glyph unicode="&#x26;" horiz-adv-x="1028" d="M96 211q-37 137 70 319q55 94 223 297q-47 127 -55 238q-10 141 35 248q31 72 84 102q63 39 147 15q55 -16 84 -62q82 -125 -4 -301q-49 -96 -178 -256q82 -197 252 -424q27 78 32 152q2 20 17.5 33.5t36 11.5t34 -17.5t11.5 -36.5q-9 -114 -62 -233q86 -109 181 -209 q14 -14 14 -34.5t-15.5 -34t-36 -13.5t-32.5 17q-82 86 -160 178q-43 -68 -94 -115q-63 -59 -151.5 -85t-174.5 -13q-92 12 -161.5 69.5t-96.5 153.5zM190 236q35 -131 179 -152q63 -8 129.5 11.5t115.5 64.5q52 47 95 125q-180 233 -277 440q-129 -158 -180 -244 q-88 -147 -62 -245zM432 1073q6 -71 31 -153q90 115 129 192q61 125 10 203q-10 14 -31 20q-41 12 -67 -4q-27 -14 -45 -57q-35 -84 -27 -201z" />
<glyph unicode="'" horiz-adv-x="256" d="M88 954q57 233 0 412q-6 18 3 36.5t28.5 25t38 -3t24.5 -29.5q66 -203 0 -465q-4 -18 -21.5 -29.5t-37 -6.5t-30.5 22.5t-5 37.5z" />
<glyph unicode="(" horiz-adv-x="612" d="M137 524q-2 287 81 548t243 433q14 16 34.5 16.5t36 -13t15.5 -34t-12 -34.5q-147 -156 -224.5 -399.5t-75 -516t84 -513t233.5 -392.5q14 -14 14 -34.5t-14 -35t-34.5 -14.5t-35.5 14q-168 168 -256 427.5t-90 547.5z" />
<glyph unicode=")" horiz-adv-x="512" d="M29 -432q0 21 14 35q150 143 233.5 385.5t90 519t-68.5 520.5t-222 391q-14 14 -14.5 35t14 35t35 14t34.5 -14q164 -164 245 -427t75 -558q-6 -291 -97.5 -551t-254.5 -420q-14 -14 -35 -14t-35 14t-14 35z" />
<glyph unicode="*" horiz-adv-x="641" d="M94.5 921.5q2.5 20.5 18.5 32.5q76 59 139 129l14 17l-12 8q-68 49 -137 88q-16 10 -22.5 29.5t4 37t29.5 23.5t38 -4q66 -37 121 -78q2 41 2 125q0 20 14 34.5t34.5 14.5t35 -14t14.5 -35q0 -84 -2 -131q72 55 137 98q16 10 36 7t31 -20t8 -36.5t-22 -32.5 q-59 -41 -143 -104l-12 -8l18 -21q74 -86 148 -155q14 -12 14 -33t-13.5 -36t-34 -15t-36.5 14q-63 61 -123 127q2 -88 -6 -182q-2 -20 -17.5 -33.5t-36 -11.5t-33.5 17t-11 36q8 92 6 178q-53 -55 -121 -110q-16 -12 -36.5 -10.5t-33 18t-10 37z" />
<glyph unicode="+" horiz-adv-x="870" d="M100 524.5q0 20.5 14.5 34.5t35.5 14h131h131q0 18 -1 118t-1 153q0 20 14 34.5t34.5 14.5t35 -14.5t14.5 -34.5q0 -53 1 -152.5t1 -120.5q145 0 266 -4q20 0 33.5 -15t13.5 -35.5t-15 -34t-36 -13.5q-119 4 -262 4q0 -143 -6 -252q-2 -20 -16.5 -33.5t-35 -12.5 t-33.5 15.5t-13 34.5q6 109 6 250h-262q-20 0 -35 14.5t-15 35z" />
<glyph unicode="," horiz-adv-x="286" d="M31 -187.5q6 19.5 24 29.5q72 39 88 105q16 63 -22 145q-8 18 -1 38t25.5 28t38 0.5t27.5 -25.5q51 -113 27 -211q-25 -106 -138 -166q-16 -10 -35.5 -4t-29.5 23.5t-4 37z" />
<glyph unicode="-" horiz-adv-x="557" d="M57 532.5q-2 20.5 12.5 35t34.5 16.5q174 10 359 10q20 0 34.5 -14.5t14.5 -35t-14.5 -34.5t-34.5 -14q-180 0 -354 -11q-20 -2 -35 12.5t-17 35z" />
<glyph unicode="." horiz-adv-x="309" d="M164 38.5q0 20.5 14.5 35t34.5 14.5t34.5 -14.5t14.5 -35t-14.5 -34.5t-34.5 -14t-34.5 14t-14.5 34.5z" />
<glyph unicode="/" horiz-adv-x="583" d="M-12 12.5q-8 18.5 0 36.5q225 537 461 1368q6 18 23 28.5t36.5 4.5t30 -23.5t4.5 -37.5q-236 -834 -465 -1377q-8 -18 -26.5 -26.5t-37 0t-26.5 27z" />
<glyph unicode="0" horiz-adv-x="929" d="M35 524q-16 262 65 496q83 227 228 321q6 8 16 13q123 49 218 24.5t167 -114.5q129 -156 162 -449q33 -283 -43 -514q-88 -270 -281 -326q-244 -70 -391 117q-123 156 -141 432zM133 530q16 -246 119 -376q109 -135 287 -84q143 41 215 262q70 211 39 473 q-31 264 -140 397q-102 125 -243 72q-2 0 -4 -2q-135 -66 -213 -285q-74 -213 -60 -457z" />
<glyph unicode="1" horiz-adv-x="589" d="M158 1011.5q0 20.5 16 35.5q156 143 279 325q12 16 31.5 19.5t37.5 -7.5q20 -14 21 -41v-2v-1298q0 -20 -14.5 -34.5t-35 -14.5t-35 14.5t-14.5 34.5v1151q-94 -119 -204 -221q-14 -12 -35 -12t-34 15t-13 35.5z" />
<glyph unicode="2" horiz-adv-x="897" d="M68 43v18q2 14 4 37q6 35 20 90q25 109 39 152q29 80 87 160t107.5 126t131.5 115l94 82q27 23 71 66t65.5 77.5t31.5 69.5q18 66 -3.5 120t-71.5 88t-111.5 39t-118.5 -26q-66 -35 -105 -98t-82 -172q-6 -18 -24.5 -26.5t-38 -1t-27.5 26t0 38.5q20 55 35.5 88t43.5 83 t65.5 86t83.5 62q86 45 174 37q88 -6 159 -55q76 -51 109 -134t6 -179q-16 -61 -63 -125q-49 -63 -89 -100t-118 -101q-16 -14 -25 -20q-117 -100 -188.5 -180t-104.5 -179q-14 -37 -39 -141l-16 -76q33 -2 90 -2q119 -4 199 -6q121 -2 340 4q20 0 35.5 -13.5t15.5 -34 t-13.5 -35.5t-33.5 -15q-221 -6 -348 -4q-78 2 -197 6q-61 0 -98 2q-20 0 -31 2h-10h-4h-4q-2 2 -7 2q-2 0 -6 2q-10 6 -18 14q-10 12 -12 31z" />
<glyph unicode="3" horiz-adv-x="940" d="M46 189.5q5 19.5 22.5 30.5t37 6t31.5 -23q68 -111 236 -148q156 -33 272.5 50t147.5 219q8 49 7 98t-25.5 96t-63.5 86t-105.5 67.5t-152.5 39.5h-2l-62 -17q-20 -6 -37.5 4.5t-22.5 31t5 37.5t31 21q250 63 315 201q51 106 -27 211q-35 47 -89 75t-113 25 q-145 -2 -254 -170q-10 -16 -31 -21t-37 6t-21 32t7 37q135 211 334 215q84 2 159.5 -36t124.5 -105.5t60.5 -146.5t-25.5 -165q-47 -98 -166 -168q176 -59 248 -192t39 -285q-39 -170 -188.5 -276.5t-348.5 -63.5q-211 45 -301 193q-10 16 -5 35.5z" />
<glyph unicode="4" horiz-adv-x="911" d="M35 467q2 14 12 22l164 269l201 327l170 265q12 33 47 32q16 0 30 -8q29 -20 19 -55v-805l156 -4q20 0 33.5 -15.5t13.5 -36t-15.5 -33.5t-36.5 -13l-151 4v-381q0 -20 -14.5 -34.5t-35 -14.5t-34.5 14t-14 35v381q-223 0 -476 -10q-25 -14 -51 2q-35 20 -18 59zM174 508 q211 6 406 6v653l-129 -200l-154 -254z" />
<glyph unicode="5" horiz-adv-x="825" d="M35 185.5q2 19.5 18.5 32.5t36 11t33.5 -18q61 -78 131 -113t162 -35q156 0 227 156q68 152 25 336q-18 86 -60.5 148.5t-99.5 89.5q-137 59 -330 -101q-4 -6 -10 -8q-16 -8 -33 -6q-20 4 -31.5 20.5t-9.5 36.5q2 8 17.5 118t27.5 185q18 111 33 179q10 41 18 67 q12 37 27 51q6 6 12.5 9.5t10.5 3.5l2 2h8q6 2 16 2q16 2 45 2q43 2 129 4q205 4 213 4q20 2 36 -11.5t18 -34t-11.5 -35.5t-33.5 -17q-12 0 -220 -4q-84 -2 -129 -5h-30v-2q-6 -20 -15 -57q-14 -66 -32 -174q-12 -76 -27 -188q186 115 338 47q84 -37 139 -119 q53 -80 78 -184q49 -217 -33 -400q-43 -96 -123 -154.5t-192 -58.5q-221 0 -371 185q-12 16 -10 35.5z" />
<glyph unicode="6" horiz-adv-x="858" d="M35 551q-6 160 31.5 317.5t107.5 264.5q98 150 209 217q162 96 309 -2q18 -12 21.5 -32t-8 -37t-31 -20t-35.5 7q-96 63 -205 0q-92 -57 -178 -187q-59 -92 -94 -235.5t-29 -288.5q4 -94 25 -174q18 53 47 106q57 100 131 166q104 94 213 84q174 -16 242 -174 q55 -135 6 -299q-49 -166 -172 -241q-147 -90 -324 4q-131 68 -194.5 209t-71.5 315zM227 223q47 -72 119 -110q127 -66 227 -7q92 55 129 187q39 129 -4 231q-43 104 -157 115q-66 6 -140 -59q-61 -55 -110 -142q-51 -90 -60 -196q0 -11 -4 -19z" />
<glyph unicode="7" horiz-adv-x="864" d="M27 1314.5q0 20.5 15.5 34t35.5 13.5q125 -4 342 4q270 10 346 10q39 0 47 -37q8 -18 0 -36l-483 -1285q-6 -18 -24.5 -26t-38 -1t-28 25.5t0.5 38.5l458 1223q-16 0 -276 -10q-219 -8 -348 -4q-20 0 -33.5 15t-13.5 35.5z" />
<glyph unicode="8" horiz-adv-x="974" d="M29 371q4 121 69.5 229.5t175.5 165.5q-55 27 -96 63q-102 98 -86 240q14 131 121 229q109 98 256 103q154 4 253 -89t116 -225q12 -94 -25 -178q-37 -86 -119 -137q100 -49 160.5 -143t75.5 -205q12 -106 -20.5 -201.5t-121 -167t-219.5 -86.5h-12q-10 -6 -22 -8 q-129 -8 -229.5 22.5t-161 90t-90 135.5t-25.5 162zM127 369q-2 -66 18.5 -122.5t66.5 -102.5t127 -69.5t187 -15.5h11q8 7 20 9q150 16 221 116q70 98 53 228q-14 121 -96 209t-211 98q-8 -2 -18 -2q-23 0 -45 2q-145 -10 -237.5 -114.5t-96.5 -235.5zM190.5 1059 q-10.5 -94 55.5 -158q72 -68 217 -82h20h35q6 2 10 2q117 12 170.5 85t41 169t-84 163t-183.5 64.5t-191.5 -76t-90 -167.5z" />
<glyph unicode="9" horiz-adv-x="870" d="M55.5 75.5q-2.5 20.5 11 36t34 17.5t36.5 -12q86 -76 203 -25q100 45 199 164q76 94 129 240q53 147 63 299q4 82 -4 153q-25 -53 -61 -102q-152 -203 -312 -213q-74 -4 -134 32.5t-101 100.5q-49 82 -59.5 184.5t35.5 209t147 171.5q76 49 164 57.5t172 -34.5 q145 -76 203.5 -227.5t47.5 -335.5q-10 -168 -69.5 -330t-143.5 -266q-113 -137 -235 -191q-174 -78 -309 39q-14 12 -16.5 32.5zM157 959.5q7 -78.5 46 -140.5q57 -94 147 -88q113 6 238 172q61 84 82 195q2 8 8 16q-51 102 -146 154q-55 29 -118.5 23.5t-118.5 -42.5 q-76 -49 -110.5 -130t-27.5 -159.5z" />
<glyph unicode=":" horiz-adv-x="382" d="M231 88.5q0 20.5 14.5 34.5t35 14t35 -14t14.5 -34.5t-14.5 -35t-35 -14.5t-35 14.5t-14.5 35zM238 925.5q0 20.5 14 35t34.5 14.5t35 -14.5t14.5 -35t-14.5 -34.5t-35 -14t-34.5 14t-14 34.5z" />
<glyph unicode=";" horiz-adv-x="423" d="M156 -222.5q6 19.5 24 29.5q80 43 99.5 121t-25.5 162q-10 16 -4 35.5t23.5 30t37 4t29.5 -24.5q66 -113 35 -230.5t-150 -183.5q-16 -10 -35.5 -3.5t-29.5 23.5t-4 36.5zM233 901.5q0 20.5 14.5 34.5t35 14t35 -14t14.5 -34.5t-14.5 -35t-35 -14.5t-35 14.5t-14.5 35z " />
<glyph unicode="&#x3c;" horiz-adv-x="696" d="M41 537q0 31 29 43l12 6l498 229q18 8 37.5 1t27.5 -25.5t1 -38t-25 -27.5l-410 -188l410 -181q18 -8 25 -27.5t-1 -38t-27.5 -25.5t-37.5 1l-496 219q-27 4 -39 29q-4 10 -4 23z" />
<glyph unicode="=" horiz-adv-x="716" d="M119 689.5q0 19.5 15.5 33.5t35.5 14q86 -2 451 -2q20 0 34.5 -14t14.5 -34.5t-14.5 -35t-34.5 -14.5q-365 0 -455 2q-18 0 -32.5 15.5t-14.5 35zM141 411.5q0 20.5 14.5 35t34.5 14.5h406q20 0 34.5 -14.5t14.5 -35t-14.5 -35t-34.5 -14.5h-406q-20 0 -34.5 14.5 t-14.5 35z" />
<glyph unicode="&#x3e;" horiz-adv-x="694" d="M33 330.5q-6 19.5 3 38t27 24.5q39 12 412 148l-401 184q-18 8 -25.5 27.5t0.5 38t28 25.5t38 -1l510 -233q29 -14 28 -45q2 -37 -32 -50q-76 -25 -254 -90l-271 -98q-20 -6 -38.5 3t-24.5 28.5z" />
<glyph unicode="?" horiz-adv-x="858" d="M143 1094q16 145 121 241q104 94 234 107q137 14 227 -66q98 -90 88 -260q-8 -127 -66.5 -194.5t-154.5 -106.5q-27 -12 -76 -27q-49 -18 -67 -24q-66 -25 -91 -55q-2 -6 -4 -15q-4 -18 -6 -53q-6 -59 -8 -166q-4 -166 0 -287q0 -20 -13.5 -35.5t-34 -15.5t-35.5 13.5 t-15 33.5q-4 123 0 293q2 111 8 172q4 39 8 66q8 37 21 53q43 53 135 88q20 8 71 25q45 14 70 24q74 31 114 78t46 137q8 125 -58 183q-55 53 -149 43q-98 -10 -176 -82t-90 -183q-2 -18 -18.5 -31.5t-36 -11.5t-33 19t-11.5 37zM244 6.5q0 20.5 14 34.5t34.5 14t35 -14 t14.5 -34.5t-14.5 -35t-35 -14.5t-34.5 14.5t-14 35z" />
<glyph unicode="@" horiz-adv-x="1495" d="M217 680q12 164 92 319q78 152 211 275q131 121 287 158q221 55 408.5 -61t232.5 -337q25 -133 -10 -270q-12 -53 -47 -125t-80 -127q-59 -72 -123 -92q-86 -27 -164 35q-33 26 -49 77q-66 -80 -156 -116q-57 -27 -127.5 -14.5t-122.5 69.5q-59 70 -53 201 q8 150 92 269.5t195 164.5q125 51 205 -16q74 -59 69 -193l4 -12v-4v-9q0 -18 -8 -91.5t-10 -108.5q-4 -59 2 -97q6 -33 20 -43q37 -29 72 -18q37 12 78 61q37 45 66.5 106.5t41.5 106.5q29 115 7 226q-35 180 -186.5 273t-332.5 50q-133 -33 -248.5 -139t-187.5 -244 q-70 -137 -82 -282.5t32 -267t150.5 -212t258.5 -118.5q182 -37 325 4q53 14 111.5 53t91.5 70l96 92q14 14 35 14t35 -14t14 -34.5t-14 -35.5l-14 -14l-99 -90q-35 -33 -100.5 -75t-126.5 -60q-168 -47 -375 -9q-180 37 -305 144.5t-174 251t-37 309.5zM614 668 q-4 -92 29 -131q53 -61 141 -29q41 16 79 49t59 72q27 45 51 190q2 6 4 19q-2 8 -2 18q16 121 -29 158q-37 31 -106 2q-84 -35 -151.5 -131.5t-74.5 -216.5z" />
<glyph unicode="A" d="M100 51l371 1084l51 141l33 90q8 20 14 33q2 8 5.5 13t7.5 7q8 14 24 19q8 2 16 2q6 0 10 -1q12 -3 19 -9l6 -7q4 -4 8.5 -10t8.5 -16q4 -12 14 -37q6 -16 37 -115l63 -201q242 -760 324 -993q2 -8 2 -16q0 -11 -5 -21q-9 -18 -29 -25q-9 -3 -16 -3q-10 0 -20 5 q-18 9 -26 27l-189 574l-440 -2l-194 -572q-7 -18 -25 -27q-10 -5 -21 -5q-9 0 -17 3q-20 7 -28 25q-6 11 -6 22q0 7 2 15zM424 688l375 2l-105 326l-63 201l-13 38l-4 -12l-49 -141z" />
<glyph unicode="B" horiz-adv-x="1095" d="M100 31q6 326 6 1335q0 20 14.5 34.5t35 14.5t35 -14.5t14.5 -34.5v-20q165 65 300 65q42 0 81 -6q166 -25 243 -139q47 -68 47 -143q0 -61 -32 -126q-58 -108 -197 -186q139 -33 238.5 -116t140.5 -195q24 -61 24 -126q0 -30 -6 -62q-16 -98 -88 -175 q-146 -157 -459 -157h-34q-135 4 -266 40q-2 -16 -16.5 -27t-30.5 -11q-20 0 -35 15t-15 34zM201 123q129 -41 266 -45h32q268 0 386 127q68 73 68 162q0 47 -19 100q-27 72 -87.5 130t-150.5 96q-86 36 -206 36h-13q-129 -2 -272 -53q0 -311 -4 -553zM205 813q203 0 309 43 q184 74 242 186q22 42 22 82q0 45 -28 86q-35 51 -106 81q-55 23 -137 23q-25 0 -51 -2q-118 -9 -251 -73v-426z" />
<glyph unicode="C" horiz-adv-x="1083" d="M70 799q16 152 69 293q49 129 148 223q98 96 211 127q46 13 90 13q76 1 146 -39q110 -62 167 -222q6 -18 -2 -36.5t-27.5 -26t-38 1t-26.5 28.5q-45 125 -120 167q-49 28 -104 28q-29 0 -59 -8q-90 -25 -171 -104t-124 -189q-47 -127 -62 -267q-5 -49 -5 -98 q0 -91 18 -182q28 -141 99 -248q88 -131 217 -170q47 -14 90 -14q111 0 202 94q106 111 168 315q6 18 23.5 28.5t37 4.5t29.5 -24q7 -11 7 -23q0 -7 -2 -14q-68 -227 -191 -355q-122 -126 -270 -126q-59 0 -123 20q-162 49 -270 211q-82 121 -113 281q-20 103 -20 202 q0 55 6 109z" />
<glyph unicode="D" horiz-adv-x="1138" d="M119 31q6 332 6 1362q0 20 14.5 34.5t35 14.5t34.5 -14.5t14 -34.5v-4q110 48 224 49q99 0 200 -37q141 -51 243.5 -166t151 -255t50.5 -292v-12q0 -147 -46 -278q-48 -136 -156 -244.5t-261 -147.5q-99 -25 -187 -25q-124 0 -225 50q0 -20 -15.5 -34.5t-35 -14.5 t-33.5 15t-14 34zM219 143q98 -64 227 -63q74 0 158 20q190 49 290 212q99 160 99 368v8q-2 209 -104 383q-100 172 -275 236q-88 32 -171 32q-112 0 -216 -57q-2 -2 -4 -2q0 -811 -4 -1137z" />
<glyph unicode="E" horiz-adv-x="1040" d="M164 39v2v2q6 334 6 1311q-4 10 -4 20q0 23 16 37q14 16 37 16q11 0 21 -4q50 1 338 7q150 3 236 3q79 0 104 -3q20 0 33.5 -15.5t13.5 -36t-15.5 -34t-36.5 -13.5q-6 3 -86.5 3t-234.5 -3q-309 -6 -324 -6v-207v-237q379 0 506 2q18 0 33.5 -14.5t15.5 -34t-14 -35 t-35 -15.5q-125 -2 -506 -2q0 -403 -6 -692q502 0 684 -4q20 0 33.5 -15.5t13.5 -36t-15 -33.5t-36 -13q-166 4 -715 4q-8 -2 -14 -2q-20 0 -34.5 14t-14.5 35z" />
<glyph unicode="F" horiz-adv-x="1011" d="M164 39q6 336 6 1315q-4 10 -4 20q0 23 16 37q14 16 37 16q11 0 21 -4q50 1 338 7q150 3 236 3q79 0 104 -3q20 0 33.5 -15.5t13.5 -36t-15.5 -34t-36.5 -13.5q-6 3 -86.5 3t-234.5 -3q-309 -6 -324 -6v-207v-237q379 0 506 2q18 0 33.5 -14.5t15.5 -34t-14 -35 t-35 -15.5q-125 -2 -506 -2q0 -434 -6 -743q0 -20 -15.5 -34.5t-34.5 -14.5t-33.5 15t-14.5 34z" />
<glyph unicode="G" horiz-adv-x="1122" d="M82 766q18 182 78 334q70 174 192 274q108 86 258 86q24 0 49 -2q131 -12 217.5 -88t147.5 -199q8 -18 1 -37.5t-24.5 -28.5t-37 -2t-29.5 23q-51 109 -117.5 166.5t-165.5 67.5q-21 2 -41 2q-241 0 -360 -299q-53 -135 -70 -305q-6 -69 -6 -130q0 -88 14 -157 q16 -98 65.5 -187t123.5 -149q99 -80 207 -80q70 0 143 33q117 51 193 277q49 141 67 305q-270 0 -420 8q-20 2 -34.5 16.5t-12.5 35t16.5 34.5t34.5 12q152 -8 467 -8h2h4q35 -2 43 -37q5 -10 5 -20l-7 -342q-4 -231 -8 -353q0 -20 -15 -33.5t-35.5 -13.5t-34 15.5 t-13.5 35.5q2 98 6 238q-86 -203 -217 -260q-100 -39 -187 -39q-31 0 -59 5q-112 18 -207 95q-88 70 -146 175.5t-79 220.5q-15 77 -15 172q0 65 7 139z" />
<glyph unicode="H" horiz-adv-x="1046" d="M164 39q6 326 6 1339q0 20 14.5 34.5t35 14.5t34.5 -14.5t14 -34.5v-256v-274l631 2q2 375 2 532q0 20 14.5 35t35 15t34.5 -14.5t14 -35.5q0 -78 -4 -674q-2 -239 -2 -395q0 -233 4 -280q0 -20 -14 -34.5t-34.5 -14.5t-35 14t-14.5 35q-3 183 -3 441q0 129 1 278 l-629 -2q0 -412 -6 -711q0 -20 -15.5 -34.5t-34.5 -14.5t-33.5 15t-14.5 34z" />
<glyph unicode="I" horiz-adv-x="294" d="M150 47v1333q0 20 14 35t34.5 15t35 -15t14.5 -35v-1333q0 -20 -14.5 -34.5t-35 -14.5t-34.5 14.5t-14 34.5z" />
<glyph unicode="J" horiz-adv-x="837" d="M39 403q0 20 14.5 35t35 15t34.5 -14.5t14 -35.5q0 -154 37 -215q37 -59 103.5 -94t140.5 -37q76 0 135 34t88 102q53 129 53 571q0 135 -6 356t-6 277q0 20 14.5 34.5t35 14.5t34.5 -14.5t14 -34.5q0 -55 6.5 -276.5t6.5 -356.5q0 -463 -62 -608q-41 -100 -127 -150 q-83 -47 -178 -47h-8q-98 2 -187.5 48t-138.5 128q-53 86 -53 268z" />
<glyph unicode="K" horiz-adv-x="1175" d="M123 43q6 326 6 1339q0 20 14.5 35t35 15t34.5 -15t14 -35v-727l623 758q14 16 34.5 18.5t36 -11t17.5 -34t-10 -34.5l-379 -461l571 -813q8 -12 8 -28q0 -5 -1 -9q-3 -21 -19 -32t-36.5 -8t-33.5 19l-555 791l-256 -311q-2 -248 -6 -457q0 -20 -15.5 -34.5t-34.5 -14.5 t-33.5 15.5t-14.5 33.5z" />
<glyph unicode="L" horiz-adv-x="1024" d="M123 43q6 326 6 1339q0 20 14.5 35t35 15t34.5 -15t14 -35q0 -985 -6 -1292q104 -2 222 -2t262.5 1t222.5 1q20 0 34.5 -14.5t14.5 -35t-14.5 -34.5t-34.5 -14q-76 0 -237 -2q-107 -1 -198 -1h-85q-122 1 -236 5q-20 0 -34.5 15.5t-14.5 33.5z" />
<glyph unicode="M" horiz-adv-x="1343" d="M106 45q6 326 7 1339q-1 29 24 43q6 4 13 7q9 4 18 4q8 0 18 -4q18 -8 27 -27q350 -834 473 -1155q262 649 494 1155q8 17 28 25q9 4 18 4q10 0 19 -4q29 -14 29 -48q2 -109 9 -414.5t10 -517.5t3 -415q0 -20 -14 -34.5t-34.5 -14.5t-35 14t-14.5 35q0 307 -18 1130 q-205 -459 -445 -1056q-2 -6 -6 -13q-8 -18 -27.5 -25t-38 1t-24.5 28q-141 375 -428 1057q0 -748 -6 -1114q0 -20 -15.5 -34.5t-35 -14.5t-34 15.5t-14.5 33.5z" />
<glyph unicode="N" horiz-adv-x="1130" d="M106 45q6 326 7 1339q0 20 14 35t35 15q23 0 37 -19q6 -4 10 -10q135 -201 381 -598q254 -412 395 -623v1207q0 20 14.5 34.5t35 14.5t34.5 -14.5t14 -34.5v-1366q0 -20 -14 -35t-35 -15q-35 0 -47 33q-162 231 -438 678l-338 537q0 -813 -6 -1178q0 -20 -15.5 -34.5 t-35 -14.5t-34 15.5t-14.5 33.5z" />
<glyph unicode="O" horiz-adv-x="1134" d="M178 561q-4 49 -4 97q0 217 74 415q90 240 252 338q4 4 12 8l14 6l9 5q4 2 10 2q69 26 132 26q138 0 247 -127q139 -164 176 -469q10 -88 10 -172q0 -196 -57 -366q-94 -283 -303 -336q-66 -17 -126 -17q-173 0 -292 142q-135 162 -154 448zM276 567q18 -256 132 -393 q88 -105 218 -105q47 0 99 13q158 41 236 272q51 154 51 333q0 81 -10 165q-33 274 -154 416q-78 90 -176 90q-50 0 -105 -23q-143 -74 -227 -295q-67 -180 -68 -383q1 -44 4 -90z" />
<glyph unicode="P" horiz-adv-x="1036" d="M137 43v1333q0 20 14.5 34.5t34.5 14.5q18 0 33 -12q135 28 255 29q124 0 233 -31q119 -33 193 -111q73 -80 87 -180q3 -22 3 -44q0 -78 -38 -152q-49 -96 -155 -158q-75 -44 -179 -64q-95 -19 -180 -18h-16q-92 2 -186 6v-647q0 -20 -14.5 -34.5t-35 -14.5t-35 14.5 t-14.5 34.5zM236 788q94 -4 181 -6h17q79 0 160 17q90 16 154 53q82 48 118 116q28 53 27 108q0 15 -2 31q-10 71 -64.5 127t-144.5 83q-96 26 -207.5 26.5t-238.5 -26.5v-529z" />
<glyph unicode="Q" horiz-adv-x="1193" d="M178 561q-4 49 -4 97q0 217 74 415q90 240 252 338q4 4 12 8l14 6l9 5q4 2 10 2q69 26 132 26q138 0 247 -127q139 -164 176 -469q10 -88 10 -172q0 -196 -57 -366q-29 -90 -74 -158l168 -129q16 -12 19 -31q1 -4 1 -8q0 -15 -10 -28q-12 -17 -31 -20q-4 -1 -8 -1 q-15 0 -28 10l-170 129q-74 -76 -170 -100q-66 -17 -126 -17q-173 0 -292 142q-135 162 -154 448zM276 567q18 -256 132 -393q88 -105 218 -105q47 0 99 13q64 17 117 68l-107 88q-14 12 -16 32.5t11 36t33.5 17.5t37.5 -13l100 -84q35 55 60 127q51 154 51 333 q0 80 -10 165q-33 274 -154 416q-78 90 -176 90q-50 0 -105 -23q-143 -74 -227 -295q-67 -180 -67 -383q0 -44 3 -90z" />
<glyph unicode="R" horiz-adv-x="1239" d="M137 43v1333q0 20 14.5 34.5t34.5 14.5q18 0 33 -12q135 28 255 29q124 0 233 -31q119 -33 193 -111q73 -80 87 -180q3 -22 3 -44q0 -78 -38 -152q-49 -96 -155 -158q-43 -25 -99 -43q307 -379 486 -660q8 -13 8 -26q0 -5 -1 -11q-5 -20 -23 -31q-12 -8 -25 -8 q-5 0 -11 2q-20 5 -30 21q-182 287 -510 688q-79 -12 -199 -12q-72 0 -157 4v-647q0 -20 -14.5 -34.5t-35 -14.5t-35 14.5t-14.5 34.5zM236 788q94 -4 181 -6h17q79 0 160 17q90 16 154 53q82 48 118 116q28 53 27 108q0 15 -2 31q-10 71 -64.5 127t-144.5 83 q-96 26 -207.5 26.5t-238.5 -26.5v-529z" />
<glyph unicode="S" horiz-adv-x="1085" d="M74 514q2 20 16 34.5t34.5 12.5t35 -16.5t12.5 -34.5q-1 -17 -1 -34q0 -162 88 -265q97 -113 249 -139q49 -10 96 -10q91 0 171 38q122 56 155 168q18 65 18 122q0 96 -49 173q-61 98 -221 191q-49 27 -143 73q-98 49 -138 72q-160 88 -186 186q-10 36 -10 70q0 31 9 63 q19 64 67.5 108t108.5 72.5t128 41.5q46 8 92 8q48 0 94 -8q92 -16 172 -79t113 -165q6 -18 -3 -36.5t-28.5 -25t-38 3t-24.5 29.5q-35 105 -137 151q-69 31 -148 32q-37 0 -76 -7q-121 -21 -184 -87q-47 -49 -46 -105q0 -20 5 -41q16 -57 141 -127q18 -10 134 -68 q90 -45 147 -77q180 -104 256 -222q63 -101 63 -222q0 -72 -22 -150q-29 -109 -117 -178q-87 -70 -197 -92q-57 -11 -114 -11q-53 0 -107 10q-86 16 -161.5 58.5t-135.5 106.5q-60 65 -92 162q-26 81 -27 177q0 18 1 37z" />
<glyph unicode="T" horiz-adv-x="1099" d="M96 1375.5q0 19.5 15.5 33.5t35.5 14q0 -3 190 -3q95 0 238 1l429 2q20 0 34.5 -14t14.5 -34.5t-14.5 -35t-34.5 -14.5q-61 0 -386 -2q0 -1001 -6 -1280q0 -18 -15 -32.5t-34.5 -14.5t-34 15.5t-14.5 35.5q6 276 6 1276q-73 -1 -139 -1q-132 0 -238 3q-18 0 -32.5 15.5 t-14.5 35z" />
<glyph unicode="U" horiz-adv-x="1003" d="M150 768v23q0 189 30 608q2 19 18 33q14 12 30 12h6q20 -2 33.5 -17.5t11.5 -35.5q-31 -413 -31 -601v-22q0 -414 94 -569q27 -47 72 -81t90 -38q7 -1 14 0q113 0 207 151q70 113 131 310q2 4 4 10v835q0 20 14.5 35t35 15t34.5 -14.5t14 -35.5v-1353q0 -20 -14 -34.5 t-34.5 -14.5t-35 14t-14.5 35v241q-25 -51 -51 -94q-123 -199 -287 -199q-13 0 -26 1q-74 6 -137.5 55t-102.5 113q-106 178 -106 618z" />
<glyph unicode="V" horiz-adv-x="1089" d="M113 1380q-2 7 -2 14q0 11 6 23q9 19 29 24q6 2 13 2q13 1 25 -7q18 -10 23 -31q98 -361 350 -1192l121 373l149 446l125 373q6 18 24.5 27.5t38 3.5t29.5 -24q6 -11 5 -24q0 -8 -2 -16l-140 -407l-168 -510l-131 -412q6 -18 -4 -34.5t-29 -22.5q-6 -2 -13 -2l-19 4h-2 q-18 6 -27.5 21.5t-7.5 33.5q-305 1012 -393 1337z" />
<glyph unicode="W" horiz-adv-x="1728" d="M14 1380q-2 7 -2 13q0 12 6 24q10 19 30 24q6 2 13 2q13 1 25 -7q18 -10 23 -31q98 -355 362 -1227l342 889q6 18 24.5 26.5t39.5 0.5q4 0 8 -4q23 -8 28 -31q84 -289 322 -887q72 229 190.5 653t165.5 580q6 18 23.5 28.5t37.5 4.5t30 -24q7 -11 6 -23q0 -7 -2 -15 l-175 -610q-139 -492 -223 -754q-6 -20 -24.5 -29.5t-36.5 -2.5q-29 8 -33 36q-4 4 -6 11l-68 166l-73 188l-62 164q-41 106 -70 192l-59 170l-348 -903q-6 -18 -24 -26q-10 -4 -20 -5q-10 0 -20 4q-33 12 -30 48q-313 1038 -400 1355z" />
<glyph unicode="X" horiz-adv-x="1073" d="M64 30q-2 6 -1 12q0 14 9 26l413 665q-260 397 -381 621q-10 16 -4 35.5t23.5 30t37 4t29.5 -24.5q123 -223 351 -572l338 580q11 17 31 23q7 2 13 2q13 0 25 -6q18 -10 22.5 -31t-5.5 -37l-365 -623l98 -151l150 -242q109 -178 174 -274q8 -12 8 -27q0 -4 -1 -9 q-3 -20 -21 -31q-14 -9 -28 -9q-4 0 -8 1q-20 3 -32 21q-68 100 -174 273l-150 243l-71 111l-391 -627q-10 -16 -31 -21q-7 -2 -13 -2q-13 0 -24 8q-16 11 -22 31z" />
<glyph unicode="Y" horiz-adv-x="1026" d="M127 1400q6 19 25 28q10 6 22 6q8 0 16 -2q19 -7 27 -25q125 -248 371 -653l303 653q10 18 29 25q8 4 16 4l20 -6q19 -9 26 -28q3 -8 3 -17t-4 -19l-199 -426l-239 -510q-109 -221 -217 -416q-10 -16 -30 -22q-8 -2 -15 -2q-11 0 -22 6q-17 10 -23.5 29.5t4.5 37.5 q147 265 297 584q-279 459 -406 715q-6 11 -6 23q0 7 2 15z" />
<glyph unicode="Z" horiz-adv-x="960" d="M-8 41q0 8 2 14q0 14 6 27l231 385l306 483l239 379q-86 0 -303 -3t-334 -3q-20 0 -34.5 14.5t-14.5 35t14.5 34.5t34.5 14q121 0 362.5 3t362.5 3q20 0 34.5 -14t14.5 -35q0 -12 -6 -24q-2 -2 -4 -6l-248 -394l-295 -467l-241 -397q308 1 489.5 1t235.5 -1 q20 0 34.5 -14.5t14.5 -35t-14.5 -34.5t-34.5 -14q-121 2 -254 2t-297 -1t-252 -1q-20 0 -34.5 14t-14.5 35z" />
<glyph unicode="[" horiz-adv-x="468" d="M94 -334q0 4 2 8v1678q0 8 2 16q4 16 17.5 28.5t29.5 12.5q221 6 228 6q20 2 34.5 -12t16.5 -34.5t-12.5 -35t-34.5 -16.5q-47 -2 -182 -4v-1608q57 -4 172 2q20 0 34.5 -13t15.5 -33.5t-12.5 -36t-33.5 -15.5q-143 -6 -217 0h-9q-20 0 -34 16q-18 16 -17 41z" />
<glyph unicode="\" horiz-adv-x="604" d="M-93 1387.5q7 19.5 25.5 27.5t38 1t27.5 -25q297 -678 563 -1375q8 -20 0 -38.5t-27.5 -25.5t-38 1.5t-24.5 26.5q-266 696 -563 1370q-8 18 -1 37.5z" />
<glyph unicode="]" horiz-adv-x="374" d="M-8 -315.5q2 20.5 18.5 33t36.5 10.5q70 -8 184 -4v1603q-35 -2 -97 -3t-82.5 -1t-36 13.5t-15.5 34t13.5 35.5t33.5 15q221 6 227 6q14 0 27 -6q29 -12 29 -45v-1693q0 -39 -37 -48q-10 -8 -25 -8q-154 -8 -233 2q-20 2 -32.5 18.5t-10.5 37z" />
<glyph unicode="^" horiz-adv-x="776" d="M207 829q18 66 104 301l68 179l27 61q6 12 12 21l8 12q14 12 31 16q37 6 63 -28q14 -16 27 -45q18 -39 49 -132q94 -281 135 -378q8 -18 1 -37t-26.5 -27t-38 -1t-26.5 28q-47 109 -139 385q-18 57 -31 88q-23 -57 -68 -176q-88 -233 -102 -291q-6 -20 -23.5 -30.5 t-37 -4.5t-29.5 23.5t-4 35.5z" />
<glyph unicode="_" horiz-adv-x="995" d="M-55 -194.5q2 20.5 16.5 35t34.5 12.5q358 -20 903 4q20 0 35.5 -13.5t15.5 -34t-13 -36t-34 -15.5q-551 -25 -911 -4q-20 2 -34.5 16.5t-12.5 35z" />
<glyph unicode="`" horiz-adv-x="354" d="M68 1439.5q2 20.5 18 33t37 10t33 -18.5q8 -12 145 -202q10 -16 7 -37t-19.5 -32t-37 -8t-32.5 19q-133 188 -141 199q-12 16 -10 36.5z" />
<glyph unicode="a" horiz-adv-x="851" d="M35 342q0 78 29.5 150.5t85 130t141.5 89.5q77 29 167 29h23q127 -6 207 -61q-18 141 -57 203q-23 35 -65 54q-35 16 -71 16q-8 0 -16 -1q-78 -6 -133 -26q-57 -23 -123 -72q-16 -10 -36.5 -7t-32 19.5t-8 37t19.5 32.5q76 53 145.5 80.5t159.5 34.5q11 1 23 1 q58 0 114 -26q68 -31 105 -90q78 -125 90 -455q4 -111 4 -174t-2 -159.5t-2 -129.5q0 -20 -14.5 -34.5t-35 -14.5t-34.5 14.5t-14 34.5v52q-109 -59 -179 -72q-53 -8 -102 -8q-58 0 -111 12q-96 22 -155.5 72.5t-91 119t-31.5 148.5zM133 342q-1 -120 95 -198 q69 -56 185 -56q45 0 97 8q18 2 36.5 8.5t43.5 18.5l35 16q12 6 42.5 23.5t39.5 21.5q2 71 2 132q0 92 -4 161q0 33 -3 66q-10 4 -16 10q-47 49 -92 70q-45 18 -117 20h-19q-146 0 -233 -86q-92 -92 -92 -215z" />
<glyph unicode="b" horiz-adv-x="860" d="M76 1384q0 20 13 36t33.5 16t36 -13.5t15.5 -33.5q6 -209 6 -457q61 72 142 106q60 29 122 32q6 0 11 1q57 1 115 -27q64 -30 116 -94q84 -104 113 -241q17 -73 17 -146q0 -64 -13 -127q-27 -139 -109 -249.5t-211 -159.5q-101 -39 -192 -39q-62 0 -119 18 q-14 -18 -39 -18q-20 0 -34.5 14t-14.5 35v348v348v2q-2 369 -8 649zM182 106q52 -20 110 -20q72 0 154 31q102 41 170 130t91 208q11 55 11 110q0 63 -14 123q-26 116 -96 201q-67 84 -152 84q-44 0 -94 -23q-63 -29 -112 -89t-68 -132v-623z" />
<glyph unicode="c" horiz-adv-x="788" d="M14 442q2 128 41 250.5t105 214.5q114 158 251 158h3q160 -2 272 -223q10 -18 4 -38t-24.5 -29t-38 -2.5t-27.5 24.5q-88 170 -186 170h-3q-87 0 -171 -117q-88 -125 -117 -297q-10 -57 -10 -111q0 -107 39 -200q36 -84 106 -129q68 -44 138 -44h4q72 1 141 46t108 129 q8 18 27.5 25t37.5 -1t26 -28q3 -9 4 -17q0 -10 -5 -20q-51 -111 -145 -171.5t-194 -62.5h-6q-96 1 -187 59q-94 60 -146 173q-47 109 -47 231v10z" />
<glyph unicode="d" horiz-adv-x="776" d="M47 526q31 233 156 385q67 82 155 118q50 21 104 20q40 0 83 -11q74 -20 114 -53q0 223 3 406q0 20 14 34.5t34.5 14.5t35 -14.5t14.5 -34.5q-2 -55 -2 -271q0 -162 1 -414q3 -589 3 -686q0 -20 -14.5 -34.5t-35 -14.5t-34.5 14.5t-14 34.5v19v18q-88 -57 -179 -73 q-46 -7 -87 -7q-187 0 -283 152q-75 119 -75 289q0 52 7 108zM145 514q-7 -53 -7 -100q0 -139 59 -232q68 -106 203 -106q32 0 67 6q37 6 71.5 20.5t56 27.5t67.5 46q0 115 -2.5 333t-2.5 318q-4 5 -8 11q-29 51 -53 69q-25 23 -78 37q-28 7 -55 7q-101 0 -185 -103 q-106 -131 -133 -334z" />
<glyph unicode="e" horiz-adv-x="860" d="M51 338q-7 53 -7 108q0 76 13 158q20 143 80 242q76 127 178 180q65 35 134 35q36 0 73 -10q100 -27 178 -119t115 -230q6 -16 -2 -32.5t-25 -24.5q-10 -6 -22 -6q-90 -6 -186 -7h-68q-73 0 -164 1q-137 2 -186 2q-19 -90 -19 -178q0 -54 7 -107q12 -92 64 -160t125 -94 q68 -25 138 -25q5 0 11 1q76 2 144 50t103 130q8 20 26.5 27.5t38.5 -1.5q18 -8 26 -26q3 -8 4 -17q0 -10 -5 -20q-41 -96 -112.5 -155.5t-151.5 -77.5q-44 -10 -89 -11q-38 -1 -77 7q-86 16 -157.5 62t-123 124t-63.5 174zM193 733q218 -1 345.5 -1t163.5 1 q-35 92 -90 149.5t-114 73.5q-23 6 -46 6q-48 0 -96 -26q-72 -38 -133 -139q-18 -29 -30 -64z" />
<glyph unicode="f" horiz-adv-x="614" d="M-29 968.5q0 20.5 14.5 35t34.5 14.5h115q2 164 23 268q18 84 78.5 126t138.5 42q68 -2 135.5 -31.5t107.5 -79.5q11 -14 11 -31q0 -23 -19 -37q-16 -13 -35.5 -11t-33.5 18q-25 31 -72 52.5t-94 21.5q-102 0 -119 -90q-20 -94 -23 -248h201q20 0 34.5 -14.5t14.5 -35 t-14 -34.5t-35 -14h-201v-39q0 -600 15 -850q2 -20 -12.5 -34.5t-35.5 -16.5q-3 -1 -5 -1q-17 0 -29 13q-14 14 -16 35q-14 250 -15 854v39h-115q-20 0 -34.5 14t-14.5 34.5z" />
<glyph unicode="g" horiz-adv-x="796" d="M10 -130q8 19 27.5 26.5t37 -1t23.5 -28.5q31 -78 98.5 -137.5t146.5 -77.5q29 -7 56 -7q47 0 89 20q67 32 106 120q41 94 57 356q-114 -125 -264 -125h-18q-119 6 -210 93.5t-122 236.5q-14 92 -15 192q-1 4 -1 9q0 95 29 199q30 110 89 180q78 96 177 120q34 8 68 8 q60 0 116 -28q84 -37 153 -115q-2 43 -4 80q-2 20 12.5 34.5t34 16.5t33.5 -12.5t16 -34.5q14 -236 14 -485q0 -69 -1 -139q-8 -473 -76 -627q-51 -123 -150 -168q-64 -29 -133 -29q-38 0 -77 9q-100 25 -187.5 99.5t-124.5 178.5q-4 9 -4 18t4 18zM133 630q-8 -64 -8 -120 q0 -79 16 -143q23 -121 88.5 -184.5t147.5 -67.5h11q76 0 148 52q76 56 119 171q0 4 2 6q2 14 2 29q1 54 1 110q0 113 -3 234q-29 74 -81 133t-113 86q-42 18 -81 18q-88 0 -163 -90q-66 -82 -86 -234z" />
<glyph unicode="h" horiz-adv-x="890" d="M82 47q9 449 9 802q0 309 -7 544q0 20 13.5 35.5t34 15.5t35.5 -13.5t15 -33.5q8 -254 8 -547q39 61 82 104q102 106 223 106q53 0 109 -20q119 -43 184 -186q51 -113 58 -399q0 -90 -2 -239.5t-2 -170t-14.5 -35t-35 -14.5t-35 14.5t-14.5 35t2.5 168.5t2.5 239 q-6 266 -50 360q-25 55 -53.5 86t-73.5 47q-37 13 -73 13q-83 0 -156 -74q-76 -78 -154 -248q-2 -242 -8 -590q0 -20 -15 -34.5t-34.5 -14.5t-34 15.5t-14.5 33.5z" />
<glyph unicode="i" horiz-adv-x="239" d="M82 977q0 18 14.5 33.5t34 15.5t34.5 -14.5t15 -34.5q2 -100 2 -938q0 -20 -14 -34.5t-34.5 -14.5t-35 14t-14.5 35q0 838 -2 938zM94 1298.5q0 20.5 14.5 35t35 14.5t35 -14.5t14.5 -35t-14.5 -35t-35 -14.5t-35 14.5t-14.5 35z" />
<glyph unicode="j" horiz-adv-x="264" d="M-303 -152q-2 6 -2 13q0 11 7 23q11 18 30.5 23t37 -6.5t21.5 -31.5q18 -72 59 -125t84 -68q13 -5 26 -5q22 0 42 16q45 33 72 127q31 104 42 276t11 282.5t-9 345t-12 269.5q0 20 13.5 35.5t34 15.5t36 -13.5t15.5 -33.5q0 -29 10 -266.5t10 -352t-12 -294.5t-45 -293 q-37 -125 -107 -178q-47 -35 -100 -35q-28 0 -57 10q-74 25 -130.5 98.5t-76.5 167.5zM109 1306.5q0 20.5 14 35t34.5 14.5t35 -14.5t14.5 -35t-14.5 -35t-35 -14.5t-34.5 14.5t-14 35z" />
<glyph unicode="k" horiz-adv-x="827" d="M82 47q9 449 9 802q0 309 -7 544q0 20 13.5 35.5t34 15.5t35.5 -13.5t15 -33.5q7 -264 8 -581q0 -127 -2 -263q289 319 412 477q12 16 32.5 18.5t37 -10t18.5 -33t-10 -36.5q-106 -135 -275 -324q68 -96 177 -276q131 -211 192 -299q8 -12 8 -28q0 -5 -1 -9 q-3 -21 -19 -32q-13 -9 -29 -9q-5 0 -9 1q-20 3 -32 19q-63 92 -194 305q-117 188 -160 252l-137 -151q-6 -6 -13 -10q-2 -154 -6 -361q0 -20 -15 -34.5t-34.5 -14.5t-34 15.5t-14.5 33.5z" />
<glyph unicode="l" horiz-adv-x="237" d="M85 457v152q0 161 1 355q2 292 2 416q0 20 14.5 35t35 15t34.5 -15t14 -35q0 -122 -2 -414q-1 -194 -1 -355v-151q1 -214 7 -415q0 -20 -13 -35.5t-33.5 -15.5t-36 13t-15.5 34q-6 201 -7 416z" />
<glyph unicode="m" horiz-adv-x="1290" d="M102 510q0 78 2 233v2q2 137 7 256q0 20 15 34t35.5 14t34 -15.5t13.5 -36.5q0 -27 -2 -53q6 8 14 17q96 100 200 101q30 0 60 -9q127 -35 193 -191l2 -2q80 135 182 182q46 22 90 22t86 -22q86 -43 148 -174q51 -109 61 -417v-418q0 -20 -14.5 -34.5t-34.5 -14.5 t-34.5 14t-14.5 35v416q-10 287 -53 378q-47 100 -103 127q-20 11 -41 11q-23 0 -49 -13q-53 -25 -104.5 -90t-83.5 -149q0 -2 -2 -4q10 -86 10 -211v-43q0 -86 -4 -227.5t-4 -178.5q0 -20 -14.5 -34.5t-35 -14.5t-35 14.5t-14.5 34.5q0 37 4.5 178.5t4.5 227.5 q0 285 -37 370q-47 111 -127 133q-15 4 -31 4q-67 0 -135 -71q-33 -35 -88 -158q-1 -7 -1 -157v-187q1 -334 1 -344q0 -20 -14.5 -34.5t-35 -14.5t-35 14.5t-14.5 34.5q0 78 -1 232.5t-1 232.5z" />
<glyph unicode="n" horiz-adv-x="854" d="M82 521q0 95 2 228.5t6 243.5q0 20 15.5 33.5t36 13.5t33.5 -15t13 -36q-2 -31 -2 -63q18 25 39 43q94 86 209 96q15 1 29 1q98 0 180 -58q94 -68 127 -193q27 -104 35 -230q5 -72 5 -168q0 -72 -2 -159q-6 -201 -7 -225q0 -20 -14.5 -34.5t-35 -14.5t-35 14t-14.5 35 q0 39 6 231q3 88 2 161q0 85 -4 149q-6 118 -30 217q-22 88 -88 136q-56 41 -123 41q-11 0 -23 -1q-82 -8 -151 -72q-41 -37 -109 -170q-1 -5 -1 -156v-187q1 -335 1 -345q0 -20 -14 -34.5t-34.5 -14.5t-35 14t-14.5 35q0 78 -1 233.5t-1 250.5z" />
<glyph unicode="o" horiz-adv-x="907" d="M41 557q14 123 61.5 231.5t137 186.5t204.5 84q9 4 20 4h7q109 -12 191.5 -70.5t129 -143.5t66.5 -183q14 -70 15 -141q-1 -29 -3 -58q-8 -100 -42.5 -191.5t-94 -164t-151.5 -109.5q-63 -25 -135 -25q-33 0 -68 5q-98 14 -172 71.5t-112 140t-51 174.5q-7 52 -7 106 q0 41 4 83zM139 547q-5 -42 -4 -81q-1 -132 51 -234q68 -132 209 -152q28 -4 54 -4q123 0 207 95q102 116 116 304q2 28 2 56q0 146 -63 264q-78 139 -228 166h-12h-8q-122 0 -211 -116q-92 -120 -113 -298z" />
<glyph unicode="p" horiz-adv-x="874" d="M80 -356q9 449 9 802q0 308 -7 543q0 20 13.5 35.5t34 15.5t35.5 -13t15 -34q2 -59 2 -121q96 139 232 160q21 3 41 3q88 0 168 -56q96 -72 157 -217q37 -86 46 -200q2 -30 2 -60q0 -82 -17 -162q-25 -121 -86 -213t-162 -131q-53 -23 -122 -23h-11q-76 2 -135 35 q-52 29 -109 92q-2 -193 -8 -456q0 -20 -15.5 -35t-34.5 -15t-33.5 15.5t-14.5 34.5zM186 252l2 -2q2 -2 17 -21l20 -24q4 -6 18.5 -22.5t20.5 -22.5l19 -19q12 -12 20 -18l21 -14q10 -8 20 -15q37 -20 89 -22h11q46 0 82 14q143 57 189 274q15 73 15 145q0 25 -2 51 q-7 97 -38 169q-51 119 -122 169q-58 42 -117 42q-11 0 -23 -2q-70 -10 -135.5 -81t-102.5 -194l-4 -8q1 -94 1 -193.5t-1 -205.5z" />
<glyph unicode="q" horiz-adv-x="821" d="M46 426q-4 41 -4 80q0 143 56 272q68 147 166 220q80 60 168 60q19 0 39 -3q129 -20 219 -154q0 47 -2 94q0 20 13.5 36t34 16t35.5 -14t15 -34q7 -240 7 -553q0 -358 -9 -811q0 -20 -15 -34.5t-34.5 -14.5t-34 15.5t-14.5 33.5q6 281 8 480q-137 -135 -272 -144h-16 q-144 0 -246 138q-94 129 -114 317zM145 436q16 -162 95 -268q72 -98 167 -98h11q123 6 262 176q6 8 14 12q1 22 1 103v95q-1 165 -1 197q-4 7 -6 15q-37 131 -100.5 204.5t-130.5 83.5q-13 2 -25 2q-56 0 -114 -43q-72 -53 -130 -178q-47 -107 -47 -228q0 -36 4 -73z" />
<glyph unicode="r" horiz-adv-x="702" d="M90 989v5q0 16 12 30q14 16 34 18t35 -11t17 -34q4 -53 7 -110q55 76 120 123q77 59 146 59q11 0 22 -2q98 -14 144 -137q12 -29 18 -66t8 -85t4 -56v-5q0 -18 -11 -32q-13 -16 -32.5 -18t-36 11t-18.5 32q-2 23 -4 65.5t-6 69t-12 51.5q-27 68 -66 72q-5 1 -10 1 q-36 0 -88 -38q-57 -45 -106.5 -114.5t-61.5 -121.5q0 -8 -4 -14q1 -48 1 -113q0 -97 -2 -229q-3 -221 -3 -299q0 -20 -14.5 -34.5t-35 -14.5t-35 14t-14.5 35q0 82 3 294q2 127 2 232q0 71 -1 131q-2 150 -12 291z" />
<glyph unicode="s" horiz-adv-x="827" d="M20 303v5q0 16 12 30q14 16 34 18t35.5 -11t17.5 -34q8 -106 89 -171.5t193 -78.5q21 -2 41 -2q86 0 151 35q79 43 89 123q3 25 3 48q0 95 -54 153q-51 55 -178 98q-8 4 -111 37q-68 20 -106 39q-127 57 -136 162q-1 11 -1 21q0 97 68 173q75 84 181 107q36 8 70 8 q80 0 152 -44q102 -63 149 -216q6 -20 -4 -37.5t-29.5 -24t-37 4t-23.5 28.5q-35 119 -105 161q-51 30 -107 30q-21 0 -42 -4q-78 -18 -128 -76q-45 -52 -45 -109q0 -7 1 -14q4 -47 77 -82q33 -14 97 -35q102 -33 112 -35q150 -51 217 -125q82 -87 82 -219q0 -29 -4 -61 q-12 -90 -74.5 -148.5t-144.5 -80.5q-56 -15 -114 -14q-27 0 -54 3q-143 12 -251.5 100.5t-121.5 237.5z" />
<glyph unicode="t" horiz-adv-x="481" d="M0 976.5q0 20.5 14.5 35t34.5 14.5h119v358q0 20 14.5 35t35 15t34.5 -14.5t14 -35.5v-360q66 0 117 2q20 0 35.5 -13.5t15.5 -34t-13 -35.5t-34 -15q-53 -2 -121 -2v-895q0 -20 -14 -34.5t-34.5 -14.5t-35 14t-14.5 35v897h-119q-20 0 -34.5 14t-14.5 34.5z" />
<glyph unicode="u" horiz-adv-x="823" d="M74 563q-1 44 -1 86q0 209 17 352q2 20 18 33q14 11 31 11q3 -1 7 -1q20 -2 32 -18.5t10 -36.5q-17 -137 -17 -340q0 -41 1 -84q6 -301 47 -393q48 -111 152 -111h4q49 0 92 28t72 81q29 57 63 252q27 150 41 278q4 27 14 220q0 10 2 43v16v2v4q0 2 3 6q0 4 2 6 q8 18 24 27q20 8 41 0q12 -6 21 -18q4 -6 6 -15q2 -2 2 -6v-10l22 -965q0 -16 -12 -30q-14 -16 -34 -17h-4q-16 1 -30 13q-16 14 -18 34q-8 119 -12 252q-23 -94 -45 -137q-39 -76 -105 -119q-68 -43 -143 -43h-7q-74 0 -138 42q-66 44 -103 126q-49 111 -55 432z" />
<glyph unicode="v" horiz-adv-x="870" d="M41 973q-2 8 -2 15q0 12 6 22q9 18 29 24q7 2 15 2q13 0 23 -6q18 -10 23 -29q74 -254 279 -819l80 199l86 217l75 193q45 117 78 215q9 18 27 27q10 5 20 5l16 -3q18 -7 28 -25q5 -11 5 -23q0 -7 -2 -14l-112 -297l-140 -354l-118 -295q-12 -31 -45 -31q-37 0 -50 33 q-12 39 -77 221l-95 260l-71 215z" />
<glyph unicode="w" horiz-adv-x="1267" d="M20 975q-2 7 -2 14q0 11 6 23q10 18 31 23t38.5 -5t21.5 -31q102 -399 231 -819l76 201l88 233q39 106 70 201v2q8 20 28 29q8 4 19 4q8 0 16 -2q20 -8 29 -29l129 -327l114 -297l99 354q78 297 116 457q4 18 22 30q12 8 24 7q6 1 12 -1q20 -6 32 -24q8 -12 7 -24 q0 -7 -2 -13q-41 -170 -125 -489l-123 -461q-2 -14 -12 -23q-8 -8 -19 -12q-18 -8 -37.5 0t-27.5 27q-53 123 -144 356l-106 283l-117 -314q-82 -217 -121 -332q-4 -12 -14 -20q-8 -10 -23 -14q-7 -2 -15 -2q-11 0 -23 5q-20 9 -25 29q-154 494 -273 961z" />
<glyph unicode="x" horiz-adv-x="825" d="M22 24q-1 4 -1 8q0 15 10 27l321 451l-284 451q-12 18 -7 37.5t22 30.5q12 8 25 8q6 0 12 -2q20 -5 30 -21l264 -416l268 408q10 16 29.5 21t37 -6t22.5 -30.5t-7 -38.5l-293 -444l301 -449q8 -12 8 -27q0 -4 -1 -8q-3 -20 -20.5 -31t-37 -8t-31.5 21l-278 416l-303 -420 q-12 -16 -32 -19q-4 -1 -8 -1q-15 0 -28 10q-15 12 -19 32z" />
<glyph unicode="y" horiz-adv-x="811" d="M-41 -352q6 20 23.5 30.5t37.5 4.5q30 -9 57 -9q67 0 124 52q74 66 114 190l39 117q-55 166 -151 481l-140 457q-6 18 3.5 36.5t29.5 24.5q7 2 15 2q11 0 23 -5q18 -9 24 -30l250 -811q199 584 266 805q6 20 24.5 29.5t38 3.5t28.5 -24q5 -12 5 -23q0 -7 -2 -14 q-66 -215 -204 -623t-154 -459q-49 -147 -144 -231q-85 -78 -186 -78q-42 0 -88 14q-18 6 -28 24q-7 11 -7 23q0 6 2 13z" />
<glyph unicode="z" horiz-adv-x="811" d="M12 51q0 23 15 37q381 578 587 858q-41 0 -227 -2t-285 -4q-20 0 -35.5 13.5t-15.5 34t13.5 35.5t33.5 15q106 4 312 5t303 4q20 0 35.5 -13.5t15.5 -34.5q0 -23 -16 -38q-221 -297 -592 -857q98 0 281.5 -3t262.5 -3q20 0 35 -14t15 -34.5t-14.5 -35t-35.5 -14.5 q-68 0 -286 4q-109 2 -193.5 2t-144.5 -2q-23 -6 -41 6q-23 14 -23 41z" />
<glyph unicode="{" horiz-adv-x="636" d="M-51 575q4 18 22 31q12 8 33 12q2 0 9 1.5t10 3.5h4q98 49 127 118q27 70 34 201q0 20 2.5 59t2.5 54q4 70 10 114q18 135 86 211q84 92 252 115q20 2 36.5 -10t18.5 -32.5t-10.5 -37t-32.5 -18.5q-131 -16 -191 -82q-47 -55 -63 -160q-4 -41 -8 -104q0 -16 -2 -55.5 t-2 -59.5q-8 -145 -43 -231q-37 -92 -140 -154q8 -4 19 -10q109 -72 135 -246q8 -57 16 -215q6 -129 23 -191q20 -86 72 -131q61 -55 180 -63q20 -2 33.5 -17.5t11.5 -36t-17.5 -34t-35.5 -10.5q-152 12 -238 88q-74 63 -102 180q-16 68 -25 211q-8 150 -16 203 q-20 133 -92 180q-14 10 -56 26q-47 20 -61 50q-8 20 -2 40z" />
<glyph unicode="|" horiz-adv-x="1425" d="M109 707q-31 129 32 227q63 96 176 125q84 23 171 -2t157 -94q25 96 86.5 158.5t145.5 80.5q111 25 212 -28.5t136 -172.5q20 -74 -21 -190q-31 -82 -102 -207l-80 -133l-78 -131q-33 -55 -49 -92q-7 -17 -21 -25q-27 -25 -59 -4q-41 27 -162 88q-156 78 -221 115 q-131 72 -205 131q-102 82 -118 154zM112.5 1309q2.5 37 32.5 61q47 39 119 21q37 -8 66 -33q43 43 78.5 59.5t66.5 7.5q39 -10 49 -51q12 -51 -30 -119q-41 -66 -117 -120q-16 -10 -37 -9q-12 -2 -27 4q-131 49 -176 109q-27 33 -24.5 70zM1020 379q20 41 65 39 q31 -2 62 -27q35 -31 74 -96q72 14 116 6q39 -6 58 -31q27 -33 10 -71q-20 -49 -92 -80q-74 -31 -166 -31q-35 0 -45 31q-55 68 -78 137q-27 78 -4 123z" />
<glyph unicode="}" horiz-adv-x="634" d="M-74 1445.5q0 20.5 15.5 34t35.5 13.5q150 -6 236 -82q74 -63 106 -180q20 -74 31 -211q12 -166 19 -201q23 -133 96 -180q18 -12 55 -27q20 -6 31 -12q23 -14 33 -35q14 -31 -11 -55q-6 -6 -14 -10l-12 -6l-10 -5q-10 -4 -19 -8q-43 -18 -72 -41q-16 -12 -35.5 -38.5 t-27.5 -45.5q-27 -68 -31 -198q-2 -20 -2 -60v-53q-2 -68 -8 -117q-16 -135 -82 -213q-82 -96 -250 -118q-20 -2 -35.5 10t-18.5 32.5t9.5 36t32.5 19.5q129 16 186 84q47 55 60 162q6 41 8 106q0 14 1 54t1 61q4 147 39 231q12 31 39.5 68t52.5 57q18 14 43 29l-16 8 q-111 72 -142 248q-8 51 -18 209q-10 129 -27 192q-25 88 -75 133q-61 53 -177 58q-20 0 -33.5 15t-13.5 35.5z" />
<glyph unicode="~" horiz-adv-x="952" d="M26 443.5q-3 19.5 7 35.5q129 190 256 189q39 0 80 -19.5t61.5 -35t56.5 -46.5q53 -43 84 -62.5t62 -21.5q82 -8 186 127q12 16 32.5 18.5t37 -10t18.5 -33t-10 -36.5q-137 -176 -272 -164q-37 4 -79 24.5t-61 36.5l-59 46q-94 78 -137 77q-76 2 -174 -143 q-12 -18 -32 -21.5t-37 8t-20 31z" />
<glyph unicode="&#xa1;" horiz-adv-x="333" d="M184 1400.5q0 20.5 14.5 35t35 14.5t35 -14.5t14.5 -35t-14.5 -34.5t-35 -14t-35 14t-14.5 34.5zM188 18v1217q0 20 14.5 34.5t35 14.5t35 -14.5t14.5 -34.5v-1217q0 -20 -14.5 -34.5t-35 -14.5t-35 14.5t-14.5 34.5z" />
<glyph unicode="&#xa2;" horiz-adv-x="788" d="M14 442.5q2 128.5 41 250.5t105 214q84 117 184 148q0 119 -4 221q0 20 13.5 35.5t34 15.5t35.5 -13.5t15 -33.5q4 -100 4 -217q141 -20 244 -221q10 -18 4 -38t-24.5 -29t-38 -3t-27.5 25q-74 141 -158 166q0 -23 -8 -428q-2 -88 4 -390v-73q66 12 122 56t89 116 q8 18 27.5 25t38 -1t26 -27.5t-1.5 -37.5q-47 -100 -127 -158.5t-172 -71.5q-2 -123 -10 -223q-2 -20 -17.5 -33.5t-36 -11.5t-33.5 17.5t-11 35.5q8 96 10 217q-90 14 -164 71.5t-117 154.5q-49 113 -47 241.5zM123 553q-29 -172 29 -311q61 -135 188 -166v67 q-6 301 -4 392q8 412 8 413q-53 -29 -104 -98q-88 -125 -117 -297z" />
<glyph unicode="&#xa3;" horiz-adv-x="1048" d="M35 1075q23 147 133 248q109 100 244 117q145 18 252 -72q109 -90 122 -281q2 -20 -11 -35.5t-33.5 -17.5t-36 11.5t-17.5 33.5q-12 150 -87 212.5t-177 49.5q-104 -12 -189 -89.5t-102 -192.5q-8 -45 29 -105q10 -18 102 -133q57 -72 88 -129q152 -4 258 13 q20 2 37 -10.5t20 -32t-9.5 -36t-30.5 -20.5q-100 -14 -232 -12q25 -86 17 -174q-10 -106 -101 -238q18 2 37 0q31 -2 62.5 -13t65.5 -30.5t42 -21.5q127 -57 240 -51q125 6 162 102q6 18 24.5 26.5t37.5 1t27.5 -25.5t0.5 -39q-57 -154 -248 -164q-135 -6 -285 60 q-25 12 -52.5 27.5t-45 21.5t-39.5 8q-6 4 -20.5 0t-19.5 -1t-16.5 -4t-15.5 -7t-14 -8.5t-13 -10.5t-14.5 -12t-16.5 -14t-17.5 -17.5t-18.5 -19.5l-6 -6q-2 -2 -6 -4q-8 -6 -19 -9q-27 -6 -45 15q-16 16 -14 39q2 10 6 18l4 8q6 6 23 29q43 57 51 67q10 16 39 57.5 t39 59.5l30 51q18 31 26.5 57.5t10.5 55.5q10 88 -24 170q-43 2 -176 12q-20 2 -33.5 17.5t-11.5 36t17 34t36 11.5q92 -8 110 -9q-18 27 -45 62q-90 113 -108 141q-55 90 -43 172z" />
<glyph unicode="&#xa4;" horiz-adv-x="974" d="M63.5 276.5q2.5 20.5 16.5 32.5l22 19q10 10 14.5 13t6.5 5l4 4q4 4 12 15l31 41q6 6 12 10q-72 129 -51 295q17 123 78 223l-14 16l-13 11l-8 6l-4 8q-2 0 -9 5t-11 9l-19 15q-12 10 -27 20q-16 12 -18 32.5t10.5 37t33 18.5t36.5 -10q18 -16 36.5 -30.5t21.5 -16.5 t13.5 -11.5t12.5 -11.5l20 -20q94 92 222 98q12 4 24 4q141 -12 234 -102q35 43 94 112q12 14 32.5 16.5t36 -11t17.5 -34t-12 -36.5q-63 -74 -105 -127q78 -129 64 -295q-10 -119 -70 -215l27 -27q14 -12 20 -17t10 -9t47 -56q12 -14 10.5 -34.5t-17 -34t-36 -11 t-34.5 18.5q-37 47 -39 47q-4 4 -9.5 8t-17.5 15l-23 22q-123 -121 -309 -96q-117 16 -192 90l-27 -33q-12 -14 -18 -20q-2 -4 -54 -49q-16 -14 -36.5 -12.5t-34 17t-11 36zM229.5 698.5q-16.5 -135.5 41 -236t178.5 -116.5q141 -20 229 69t100 230q12 137 -52 241.5 t-196 127.5q-6 -2 -12 -2q-115 4 -193.5 -87t-95 -226.5z" />
<glyph unicode="&#xa5;" horiz-adv-x="1026" d="M127 1399.5q6 19.5 24.5 29t38 3t27.5 -24.5q106 -213 279 -500q82 2 166 6l229 494q10 18 28.5 25.5t37 -2t25.5 -28t-1 -36.5l-207 -444l115 12q20 2 36.5 -10.5t18.5 -33t-10 -36.5t-33 -18q-88 -10 -174 -17l-70 -147q68 2 129 2q20 0 35 -14.5t15 -35t-14.5 -35 t-35.5 -14.5q-84 0 -176 -4q-154 -326 -284 -557q-10 -16 -30 -22t-37 4t-23.5 29.5t4.5 37.5q129 233 258 502l-174 -14q-20 -2 -36 11t-18 33.5t11.5 36t33.5 17.5q117 11 211 17l-86 141q-98 -2 -194 2q-20 0 -33.5 15.5t-13.5 36t15 33.5t36 13q66 -2 133 -2 q-154 260 -252 457q-10 18 -4 37.5zM553 809l35 -55l26 59z" />
<glyph unicode="&#xa6;" horiz-adv-x="282" d="M127 127q2 29 6 92l6 96q2 35 2 86.5t-4 92.5q-2 20 11.5 35.5t34 17.5t36 -11.5t17.5 -33.5q4 -45 4 -99.5t-2 -90.5t-6.5 -101.5t-6.5 -87.5q-2 -20 -16 -34.5t-34.5 -12.5t-35 16t-12.5 35zM127 1382q-2 20 11.5 36t34 18t35.5 -11.5t17 -33.5q8 -111 8 -334 q0 -20 -14 -34.5t-34.5 -14.5t-35 14t-14.5 35q0 219 -8 325z" />
<glyph unicode="&#xa7;" horiz-adv-x="804" d="M76 -30q6 20 23.5 30t37 4t29.5 -22q35 -63 108.5 -102.5t149.5 -39.5q74 0 113 39q45 41 38 127q-6 100 -62 173t-155 147l-86 59q-49 35 -77 61q-90 76 -105 158q-14 84 37 146.5t131 91.5q27 12 57 16q-76 63 -112 119q-80 115 -25 231q49 100 134 143.5t180 28.5 q92 -16 165 -77q74 -63 105 -158q6 -18 -3 -36.5t-28.5 -25t-38 3t-24.5 29.5q-20 68 -73.5 112t-117 54t-120 -17.5t-89.5 -97.5q-33 -68 17 -135q37 -55 159 -149q152 -119 201 -170q106 -115 107 -230q0 -100 -97 -166q-37 -27 -90 -47q100 -115 109 -256 q8 -133 -70 -207q-68 -66 -180 -65q-98 0 -196.5 51t-147.5 139q-10 18 -4 38zM188 621q8 -45 70 -101q27 -23 72 -55l86 -62l71 -55q74 23 113 49q53 37 53 86q0 76 -80 162q-33 35 -84 76q-8 4 -14 10q-27 29 -77 34t-107 -15q-55 -18 -83 -53t-20 -76z" />
<glyph unicode="&#xa8;" horiz-adv-x="512" d="M113 1316.5q0 20.5 14 35t34.5 14.5t35 -14.5t14.5 -35t-14.5 -34.5t-35 -14t-34.5 14t-14 34.5zM367 1310.5q0 20.5 14 35t34.5 14.5t35 -14.5t14.5 -35t-14.5 -34.5t-35 -14t-34.5 14t-14 34.5z" />
<glyph unicode="&#xa9;" horiz-adv-x="1159" d="M203 559q-20 270 69 512q90 240 252 338q4 4 13 8l14 6l8 4q4 3 10 3q221 84 379 -101q139 -164 176 -469q35 -295 -47 -538q-94 -283 -303 -336q-258 -66 -418 125q-135 162 -153 448zM301 565q18 -256 131 -393q119 -143 318 -92q158 41 235 272q74 223 41 497.5 t-154 416.5q-116 135 -280 67q-143 -74 -227 -295q-82 -219 -64 -473zM412 768.5q43 151.5 143 220.5q127 88 254 -12q16 -12 18 -32.5t-10 -37t-32.5 -18.5t-36.5 10q-70 55 -136 10q-72 -49 -104 -168q-35 -119 2 -209t147 -98q92 -6 168 49q16 12 36 9t32 -19t9 -35.5 t-19 -31.5q-104 -78 -234 -70q-170 12 -229 160q-51 121 -8 272.5z" />
<glyph unicode="&#xaa;" horiz-adv-x="595" d="M51 1053q10 63 50 119.5t104 87.5q113 55 250 4q-6 41 -19 67q-20 49 -53 53q-31 6 -80 -14l-47 -22q-37 -18 -53 -25q-18 -8 -37 -1t-27 26.5t-0.5 38t27.5 26.5l45 23q35 16 55 24q74 31 133 23q88 -14 129 -115q27 -70 33 -184q4 -78 -2 -193q-8 -127 -8 -135 q0 -20 -14.5 -34.5t-35 -14.5t-34.5 14.5t-14 34.5v23q-186 -86 -299 -37q-63 27 -89 86t-14 125zM147 1036q-12 -80 46 -104q86 -37 266 59l2 6q4 93 2 156q-123 63 -215 18q-39 -20 -65.5 -57t-35.5 -78z" />
<glyph unicode="&#xab;" horiz-adv-x="839" d="M147 557q-4 55 72 121l76 59l96 78q14 12 34.5 10t34 -17t11.5 -36t-18 -35q-37 -31 -94.5 -75t-75.5 -60q-29 -25 -37 -37q10 -14 49 -45l86 -63l108 -80q16 -12 19.5 -31.5t-9 -36t-31.5 -19.5t-36 9l-110 80q-66 47 -86 63q-84 66 -89 115zM434 549q-4 55 72 121 l76 59l96 78q14 12 34.5 10t34 -17.5t11 -36t-18.5 -34.5q-37 -31 -94 -75t-76 -60q-29 -25 -37 -37q10 -14 50 -45l86 -63l108 -80q16 -12 19.5 -32t-9 -36t-32 -19t-35.5 9l-111 80q-66 47 -86 63q-84 66 -88 115z" />
<glyph unicode="&#xac;" horiz-adv-x="978" d="M117 702.5q0 20.5 14.5 35t34.5 14.5q31 0 153 4l191 6q123 2 201 2q100 -4 135 -14q61 -20 78 -70q16 -51 4 -148q-12 -115 -13 -124q0 -20 -14 -35t-34.5 -15t-35 14.5t-14.5 35.5q0 12 14 137q8 72 -2 104q-4 4 -12 6q-23 8 -108 11q-76 0 -197 -2l-190 -7 q-125 -4 -156 -4q-20 0 -34.5 14.5t-14.5 35z" />
<glyph unicode="&#xad;" horiz-adv-x="557" d="M57 532.5q-2 20.5 12.5 35t34.5 16.5q174 10 359 10q20 0 34.5 -14.5t14.5 -35t-14.5 -34.5t-34.5 -14q-180 0 -354 -11q-20 -2 -35 12.5t-17 35z" />
<glyph unicode="&#xae;" horiz-adv-x="1159" d="M203 559q-20 270 69 512q90 240 252 338q4 4 13 8l14 6l8 4q4 3 10 3q221 84 379 -101q139 -164 176 -469q35 -295 -47 -538q-94 -283 -303 -336q-258 -66 -418 125q-135 162 -153 448zM301 565q18 -256 131 -393q119 -143 318 -92q158 41 235 272q74 223 41 497.5 t-154 416.5q-116 135 -280 67q-143 -74 -227 -295q-82 -219 -64 -473zM463 848q-18 29 0 55v17q0 20 14.5 34.5t34.5 14.5q10 0 20 -4q27 20 58 32q80 35 170 11q53 -16 80 -56q33 -45 14.5 -110.5t-92.5 -110.5q10 -6 18 -12q43 -29 68.5 -70t33 -81t10.5 -84t-1 -76 q0 -20 -15.5 -34t-36 -14t-33.5 15.5t-13 36.5q4 92 -8.5 143t-57.5 82q-6 4 -11 7t-11.5 4t-8.5 1h-12q-10 0 -15 -1t-18.5 -3t-23.5 -4l-4 -2q-2 0 -9.5 -2t-15.5 -6q-16 -6 -29 -6q2 -90 2 -154q0 -20 -14 -34.5t-34.5 -14.5t-35 14.5t-14.5 34.5q0 72 -4 203t-6 174z M561 862q2 -47 4 -114q6 4 17.5 9t40.5 17l36 14q88 39 101 82q6 18 0 27q-6 10 -27 14q-57 16 -106 -4q-27 -12 -66 -45z" />
<glyph unicode="&#xaf;" horiz-adv-x="585" d="M-37 1290.5q0 20.5 14.5 34.5t34.5 14q78 0 236 11q160 12 241 12q20 0 35 -14.5t15 -35t-14.5 -34.5t-35.5 -14q-78 0 -235 -11q-160 -12 -242 -12q-20 0 -34.5 14.5t-14.5 35z" />
<glyph unicode="&#xb0;" horiz-adv-x="649" d="M133 1038q-8 96 37 189.5t139 134.5q14 23 41 22q106 0 175 -74.5t83 -174.5q14 -102 -32 -191.5t-154 -116.5q-125 -31 -207 39q-72 61 -82 172zM231 1047q6 -70 48 -105q43 -39 118 -20q66 16 95.5 71.5t19.5 126.5q-10 63 -47 108.5t-90 55.5q-2 -2 -6 -4 q-70 -25 -108 -91.5t-30 -141.5z" />
<glyph unicode="&#xb1;" horiz-adv-x="878" d="M299 628.5q0 20.5 14.5 35t34.5 14.5q76 0 174 14q-8 106 -8 199q0 20 14.5 34.5t35 14.5t34.5 -14.5t14 -34.5q0 -84 9 -184q102 16 147 22q20 2 35.5 -10t18.5 -32.5t-9 -36t-33 -19.5q-35 -4 -151 -23q6 -66 18 -159q2 -20 -10 -37t-32.5 -19t-37 10.5t-18.5 32.5 q-11 95 -19 158q-102 -14 -182 -14q-20 0 -34.5 14t-14.5 34.5zM369 217.5q-2 20.5 11.5 35.5t33.5 17l182 17q113 12 186 12q20 0 34.5 -14.5t14.5 -35t-14 -34.5t-35 -14q-70 0 -178 -11q-145 -14 -182 -18q-20 -2 -35.5 11.5t-17.5 34z" />
<glyph unicode="&#xb2;" horiz-adv-x="651" d="M23 715q2 8 6 20q2 6 2 8q29 139 176 236q20 14 69.5 44t78 51.5t53.5 47.5q16 18 20 54q2 18 -8 36q-23 35 -53 41q-29 6 -74 -12q-57 -23 -172 -108q-14 -12 -34.5 -9.5t-33 18t-9.5 36t19 32.5q125 94 195 123q70 27 127 17q74 -14 117 -84q31 -47 24 -103 q-8 -66 -45 -106q-29 -33 -65.5 -60.5t-91 -59.5t-64.5 -40q-55 -35 -87 -74t-44 -96h14q29 0 148 4q231 4 278 0q20 -2 33.5 -17.5t11.5 -36t-17 -33.5t-36 -11q-43 4 -268 0q-117 -4 -148 -4h-51q-10 0 -16 2h-8q-12 2 -23 10q-35 25 -24 74z" />
<glyph unicode="&#xb3;" horiz-adv-x="577" d="M41 655.5q8 18.5 26.5 26.5t36.5 0q92 -39 161 -28.5t108 43t57 83.5q29 76 -5 141.5t-120 79.5q-14 -6 -31 -14q-18 -8 -37.5 -1t-27.5 25.5t-1 38t25 27.5q137 61 156 127q12 39 -31 70q-33 23 -74.5 26t-84.5 -27t-64 -89q-8 -18 -26.5 -27.5t-37 -2.5t-27.5 26t-3 37 q35 94 105.5 139t141 42t126.5 -42q45 -31 65.5 -79t3.5 -101q-16 -57 -73 -107q68 -35 102 -102q53 -102 10 -222q-27 -76 -88 -127q-63 -51 -156.5 -63t-209.5 37q-18 8 -26.5 26.5t-0.5 37z" />
<glyph unicode="&#xb4;" horiz-adv-x="417" d="M167 1269.5q-3 20.5 7 37.5q55 78 107 168q10 18 29.5 23t38 -5t23.5 -30t-5 -38q-55 -94 -111 -176q-12 -16 -32.5 -19t-37 8t-19.5 31.5z" />
<glyph unicode="&#xb5;" horiz-adv-x="815" d="M63 -166v1127q0 20 14.5 34.5t35 14.5t35 -14.5t14.5 -34.5v-797q129 -94 237 -62q174 51 224 349q33 182 14 497q-2 20 12.5 34.5t35 16.5t34.5 -12t16 -35q18 -326 -14 -518q-25 -135 -72 -229q70 -74 113 -156q10 -18 4 -37.5t-24.5 -29t-38 -3t-27.5 24.5 q-33 63 -82 117q-68 -84 -166 -113q-131 -39 -266 39v-213q0 -20 -14.5 -34.5t-35 -14.5t-35 14.5t-14.5 34.5z" />
<glyph unicode="&#xb6;" horiz-adv-x="901" d="M74 1092q45 215 319 303q207 66 434 41q8 2 17 2q20 0 34.5 -14.5t14.5 -34.5v-1334q0 -20 -14.5 -34.5t-35 -14.5t-34.5 14.5t-14 34.5v549h-4h-93v-553q0 -20 -14 -34.5t-34.5 -14.5t-35 14.5t-14.5 34.5v557q-342 20 -483 205q-82 106 -43 279zM168 1071 q-27 -127 27 -197q112 -147 405 -167v628q-96 -10 -176 -35q-221 -72 -256 -229zM698 702h93h4v637q-47 4 -97 2v-639z" />
<glyph unicode="&#xb7;" horiz-adv-x="325" d="M180 657.5q0 20.5 14.5 35t35 14.5t35 -14.5t14.5 -35t-14.5 -35t-35 -14.5t-35 14.5t-14.5 35z" />
<glyph unicode="&#xb8;" horiz-adv-x="376" d="M144.5 -199.5q-5.5 19.5 7.5 37.5q61 100 86 174q6 20 24.5 29.5t37.5 3.5t28.5 -24.5t3.5 -36.5q-29 -88 -99 -199q-10 -16 -29.5 -21.5t-36.5 6t-22.5 31z" />
<glyph unicode="&#xb9;" horiz-adv-x="438" d="M119 1240.5q0 19.5 14 33.5q10 10 70 78l41 45q8 10 14 14l8 6l4 6q8 6 19 9q41 6 65 -27q14 -18 23 -49q12 -45 14 -133q4 -162 -20 -471q-2 -20 -17.5 -33.5t-36 -11.5t-34 17t-11.5 36q25 305 21 459q-2 47 -6 79l-11 -12q-61 -72 -73 -82q-16 -14 -36 -14t-34 15.5 t-14 35z" />
<glyph unicode="&#xba;" horiz-adv-x="649" d="M133 1038q-8 96 37 189.5t139 134.5q14 23 41 22q106 0 175 -74.5t83 -174.5q14 -102 -32 -191.5t-154 -116.5q-125 -31 -207 39q-72 61 -82 172zM231 1047q6 -70 48 -105q43 -39 118 -20q66 16 95.5 71.5t19.5 126.5q-10 63 -47 108.5t-90 55.5q-2 -2 -6 -4 q-70 -25 -108 -91.5t-30 -141.5z" />
<glyph unicode="&#xbb;" horiz-adv-x="847" d="M130.5 754.5q-5.5 19.5 5.5 37t30.5 22.5t38.5 -7l82 -49l78 -47q29 -18 49 -33q86 -57 92 -110.5t-64 -123.5q-16 -16 -69 -63l-88 -84q-14 -14 -35 -14t-35 14t-14 35t14 35q37 37 89 84t69 63q29 29 35 43q-10 14 -50 39l-49 33l-76 47l-81 49q-16 10 -21.5 29.5z M427.5 756.5q-3.5 19.5 7.5 37t30.5 20.5t36.5 -7q109 -74 162 -113q57 -43 88 -71q20 -20 32 -37q18 -25 20.5 -49.5t-18.5 -51.5q-8 -12 -26 -30q-27 -27 -76 -66l-76 -57q-45 -35 -53 -39q-14 -14 -34.5 -12t-34 17t-11 36t18.5 33q6 6 51 41l78 59q45 37 67 59l10 9 l-16 16q-29 29 -80 65q-45 35 -155 109q-18 12 -21.5 31.5z" />
<glyph unicode="&#xbc;" horiz-adv-x="1202" d="M224.5 1231q5.5 21 21.5 31q8 6 22.5 14t17.5 11t12 9.5t15 11.5t15 13l20 20l4 7q0 2 4 9t6 11q10 18 23 29q33 25 68 6q29 -14 41 -57q6 -25 10 -64q6 -61 6 -168q0 -70 -3 -170t-3 -108q0 -20 -14.5 -35t-35 -15t-34.5 14.5t-14 35.5q0 8 3 108t3 170q0 92 -4 148 q-39 -37 -109 -82q-16 -12 -36.5 -7t-32 21t-6 37zM303 181.5q-6 19.5 4 37.5l613 1184q8 18 27.5 24.5t38 -3t24.5 -29t-4 -37.5l-613 -1184q-8 -18 -27.5 -24.5t-38 3t-24.5 29zM696 442q2 4 2 11q2 2 2 6q2 2 4.5 6t6.5 10l22 35l70 106q109 168 139 224q10 16 29.5 22 t38.5 -4q8 -6 14 -14q20 -14 20 -39q-4 -164 -2 -338h39h29q20 0 34.5 -14.5t14.5 -35t-14.5 -34.5t-34.5 -14h-29h-39l5 -170q0 -20 -14.5 -36t-34 -16t-35 14.5t-15.5 33.5l-4 174h-35q-72 2 -114 6q-27 2 -43 6q-12 2 -21 6q-23 10 -31 29q-6 14 -4 26zM825 471 q33 -2 86 -4h33v94v94l-59 -92z" />
<glyph unicode="&#xbd;" horiz-adv-x="1257" d="M224.5 1231q5.5 21 21.5 31q8 6 22.5 14t17.5 11t12 9.5t15 11.5t15 13l20 20l4 7q0 2 4 9t6 11q10 18 23 29q33 25 68 6q29 -14 41 -57q6 -25 10 -64q6 -61 6 -168q0 -70 -3 -170t-3 -108q0 -20 -14.5 -35t-35 -15t-34.5 14.5t-14 35.5q0 8 3 108t3 170q0 92 -4 148 q-39 -37 -109 -82q-16 -12 -36.5 -7t-32 21t-6 37zM303 181.5q-6 19.5 4 37.5l613 1184q8 18 27.5 24.5t38 -3t24.5 -29t-4 -37.5l-613 -1184q-8 -18 -27.5 -24.5t-38 3t-24.5 29zM760 293q2 10 10 24q10 16 33 45q12 16 48 56.5t46 50.5q63 74 94 123q37 53 43 90 q-45 -23 -84 -59q-16 -14 -35.5 -14.5t-34 15t-14 35t14.5 33.5q51 49 112 78q53 25 90 12q59 -20 52 -100q-6 -61 -60 -143q-37 -55 -104 -133l-80 -93l65 -4q160 -10 218 -18q20 -4 31.5 -20.5t8 -37t-19.5 -32t-37 -8.5q-51 8 -207 18l-102 6q-23 2 -33 2q-6 2 -10 2h-4 q-2 0 -4 2q-4 0 -9 2q-14 4 -24 23q-12 20 -4 45z" />
<glyph unicode="&#xbe;" horiz-adv-x="1202" d="M193 1225q-2 21 12 37q92 106 180 131q45 12 85 -1.5t60 -50.5q41 -68 -4 -161q-14 -31 -34 -60q78 -41 81 -133q2 -59 -29.5 -115.5t-88.5 -87.5q-25 -14 -86 -24q-4 -2 -78 -15q-20 -2 -36.5 9.5t-20 32t8 37t31.5 20.5q74 12 76 12q47 8 60 14q31 16 48 48t17 65 q-2 53 -63 57q-18 -16 -41 -30q-16 -10 -36 -7t-31 20t-8 36.5t21 32.5q88 59 121 129q23 47 8 69q-8 14 -36 6q-59 -14 -131 -100q-12 -14 -33 -16t-36 11t-17 34zM301 181.5q-6 19.5 4 37.5l613 1184q8 18 27.5 24.5t37.5 -3t24.5 -29t-3.5 -37.5l-613 -1184 q-8 -18 -27.5 -24.5t-38 3t-24.5 29zM694 442q2 4 2 11q2 2 2 6q2 2 4.5 6t6.5 10l22 35l70 106q109 168 139 224q10 16 29.5 22t38.5 -4q8 -6 14 -14q20 -14 20 -39q-4 -164 -2 -338h39h29q20 0 34.5 -14.5t14.5 -35t-14.5 -34.5t-34.5 -14h-29h-39l4 -170q0 -20 -14 -36 t-33.5 -16t-35 14.5t-15.5 33.5l-4 174h-35q-72 2 -114 6q-27 2 -43 6q-12 2 -21 6q-23 10 -31 29q-6 14 -4 26zM823 471q33 -2 86 -4h33v94v94l-59 -92z" />
<glyph unicode="&#xbf;" horiz-adv-x="794" d="M88 270q8 123 72 193q61 68 157 104q29 12 78 29q55 16 70 22q66 23 88 48l4 12q4 20 8 55q6 59 10 166q6 147 7 289q0 20 14 34.5t34.5 14.5t35 -14.5t14.5 -34.5q0 -141 -6 -293q-4 -111 -10 -172q-4 -39 -11 -64q-8 -37 -22 -55q-39 -45 -133 -78q-16 -6 -74 -24 q-43 -14 -70 -25q-76 -31 -118.5 -78t-49.5 -137q-8 -123 56 -182q57 -53 151 -45q100 8 178 77.5t91 178.5q2 18 18 31.5t35.5 11.5t33 -18.5t11.5 -36.5q-16 -145 -122 -238.5t-237 -103.5q-137 -12 -225 71q-100 92 -88 262zM588 1429.5q0 20.5 14 35t34.5 14.5t35 -14.5 t14.5 -35t-14.5 -35t-35 -14.5t-34.5 14.5t-14 35z" />
<glyph unicode="&#xc0;" d="M100 51l371 1084l51 141l33 90q8 20 14 33q2 8 5.5 13t7.5 7q8 14 24 19q14 4 26.5 1t18.5 -9l6 -7q4 -4 8.5 -10t8.5 -16q4 -12 14 -37q6 -16 37 -115l63 -201q242 -760 324 -993q6 -20 -3 -37.5t-28.5 -24.5t-37 2t-25.5 27l-189 574l-440 -2l-194 -572 q-8 -18 -25.5 -27t-37 -2t-29 24.5t-3.5 37.5zM424 688l375 2l-105 326l-63 201l-13 38l-4 -12l-49 -141zM517 1657.5q5 19.5 22.5 31t37 6t31.5 -23.5q27 -45 115 -143q14 -14 12 -34.5t-16 -35t-34.5 -12.5t-35.5 16q-94 104 -127 160q-10 16 -5 35.5z" />
<glyph unicode="&#xc1;" d="M100 51l371 1084l51 141l33 90q8 20 14 33q2 8 5.5 13t7.5 7q8 14 24 19q14 4 26.5 1t18.5 -9l6 -7q4 -4 8.5 -10t8.5 -16q4 -12 14 -37q6 -16 37 -115l63 -201q242 -760 324 -993q6 -20 -3 -37.5t-28.5 -24.5t-37 2t-25.5 27l-189 574l-440 -2l-194 -572 q-8 -18 -25.5 -27t-37 -2t-29 24.5t-3.5 37.5zM424 688l375 2l-105 326l-63 201l-13 38l-4 -12l-49 -141zM483.5 1509.5q2.5 20.5 16.5 34.5q20 16 112 121q14 14 35 15t35 -12t15 -33.5t-11 -35.5q-98 -109 -121 -129q-14 -14 -34.5 -12t-35 16.5t-12 35z" />
<glyph unicode="&#xc2;" d="M100 51l371 1084l51 141l33 90q8 20 14 33q2 8 5.5 13t7.5 7q8 14 24 19q14 4 26.5 1t18.5 -9l6 -7q4 -4 8.5 -10t8.5 -16q4 -12 14 -37q6 -16 37 -115l63 -201q242 -760 324 -993q6 -20 -3 -37.5t-28.5 -24.5t-37 2t-25.5 27l-189 574l-440 -2l-194 -572 q-8 -18 -25.5 -27t-37 -2t-29 24.5t-3.5 37.5zM424 688l375 2l-105 326l-63 201l-13 38l-4 -12l-49 -141zM472 1525q-3 20 7 36q43 63 66 90q41 45 84 47q45 0 86 -49q25 -31 59 -103q10 -18 4 -37.5t-24.5 -29t-38 -3t-27.5 24.5q-33 63 -51 86q-4 4 -6 8q-4 -4 -13 -10 q-18 -20 -57 -78q-12 -18 -31.5 -21t-37 8t-20.5 31z" />
<glyph unicode="&#xc3;" d="M100 51l371 1084l51 141l33 90q8 20 14 33q2 8 5.5 13t7.5 7q8 14 24 19q14 4 26.5 1t18.5 -9l6 -7q4 -4 8.5 -10t8.5 -16q4 -12 14 -37q6 -16 37 -115l63 -201q242 -760 324 -993q6 -20 -3 -37.5t-28.5 -24.5t-37 2t-25.5 27l-189 574l-440 -2l-194 -572 q-8 -18 -25.5 -27t-37 -2t-29 24.5t-3.5 37.5zM424 688l375 2l-105 326l-63 201l-13 38l-4 -12l-49 -141zM458 1493.5q-7 18.5 1 38.5q41 92 94 106q43 14 98 -26q35 -27 47 -29q16 -4 43 21q14 12 35 11t34 -15.5t12 -35t-15 -34.5q-63 -57 -131 -43q-31 8 -84 45 q-8 6 -14 10q-12 -14 -29 -51q-8 -18 -26.5 -25.5t-38 1t-26.5 27z" />
<glyph unicode="&#xc4;" d="M100 51l371 1084l51 141l33 90q8 20 14 33q2 8 5.5 13t7.5 7q8 14 24 19q14 4 26.5 1t18.5 -9l6 -7q4 -4 8.5 -10t8.5 -16q4 -12 14 -37q6 -16 37 -115l63 -201q242 -760 324 -993q6 -20 -3 -37.5t-28.5 -24.5t-37 2t-25.5 27l-189 574l-440 -2l-194 -572 q-8 -18 -25.5 -27t-37 -2t-29 24.5t-3.5 37.5zM424 688l375 2l-105 326l-63 201l-13 38l-4 -12l-49 -141zM506 1574.5q0 20.5 14.5 35t34.5 14.5t34.5 -14.5t14.5 -35t-14.5 -34.5t-34.5 -14t-34.5 14t-14.5 34.5zM647 1574.5q0 20.5 14.5 35t35 14.5t34.5 -14.5t14 -35 t-14 -34.5t-34.5 -14t-35 14t-14.5 34.5z" />
<glyph unicode="&#xc5;" d="M100 51l371 1084l51 141l29 78q-47 29 -73.5 76t-26.5 100q2 63 40.5 112.5t112.5 63.5q94 16 154 -25q59 -39 63 -114q4 -61 -32.5 -118.5t-102.5 -86.5l2 -2q6 -16 37 -115l63 -201q242 -760 324 -993q6 -20 -3 -37.5t-28.5 -24.5t-37 2t-25.5 27l-189 574l-440 -2 l-194 -572q-8 -18 -25.5 -27t-37 -2t-29 24.5t-3.5 37.5zM424 688l375 2l-105 326l-63 201l-13 38l-4 -12l-49 -141zM549 1528q0 -61 55 -90h2q8 2 17 2q4 4 10 6q45 14 68.5 49t21.5 68q-2 27 -21 39q-27 16 -81 6q-70 -12 -72 -80z" />
<glyph unicode="&#xc6;" horiz-adv-x="1585" d="M100 51l371 1084l51 141l33 90q8 20 14 33q2 8 5.5 13t7.5 7q8 14 24 19q29 8 49 -13q147 -8 406 7q20 0 34.5 -13.5t15.5 -34t-12.5 -35t-33.5 -16.5q-231 -12 -365 -8l25 -80l63 -201l113 -352q139 -4 387 8q20 0 34.5 -13t15.5 -33.5t-12 -35t-34 -16.5 q-227 -12 -360 -8l168 -508q143 -6 393 6q20 0 34.5 -13t15.5 -33.5t-12 -35t-34 -16.5q-264 -14 -418 -6q-18 -6 -36.5 3t-24.5 27l-189 574l-440 -2l-194 -572q-8 -18 -25.5 -27t-37 -2t-29 24.5t-3.5 37.5zM424 688l375 2l-105 326l-63 201l-13 38l-4 -12l-49 -141z" />
<glyph unicode="&#xc7;" horiz-adv-x="1083" d="M70 799q16 152 69 293q49 129 148 223q98 96 211 127q127 35 236.5 -26.5t166.5 -221.5q6 -18 -2 -36.5t-27.5 -26t-38 1t-26.5 28.5q-45 125 -120 167t-163 20q-90 -25 -171 -104t-124 -189q-47 -127 -62 -266.5t12.5 -280.5t99.5 -248q88 -131 217 -170q166 -51 292 80 q106 111 168 315q6 18 23.5 28.5t37 4.5t30 -23.5t4.5 -37.5q-68 -227 -191 -355q-119 -121 -266 -125q-12 -68 -78 -180q-10 -18 -30.5 -23t-38 5t-22.5 30.5t5 36.5q57 94 66 142l-29 8q-162 49 -270 211q-82 121 -113 280.5t-14 311.5z" />
<glyph unicode="&#xc8;" horiz-adv-x="1040" d="M164 39v2v2q6 334 6 1311q-4 10 -4 20q0 23 16 37q14 16 37 16q11 0 21 -4q49 0 337.5 6.5t340.5 0.5q20 0 33.5 -15.5t13.5 -36t-15.5 -34t-36.5 -13.5q-12 6 -321 0t-324 -6v-207v-237q379 0 506 2q18 0 33.5 -14.5t15.5 -34t-14 -35t-35 -15.5q-125 -2 -506 -2 q0 -403 -6 -692q502 0 684 -4q20 0 33.5 -15.5t13.5 -36t-15 -33.5t-36 -13q-166 4 -715 4q-8 -2 -14 -2q-20 0 -34.5 14t-14.5 35zM454 1650.5q-3 20.5 8 37t31.5 19.5t36.5 -7l76 -60q47 -39 72 -57q16 -10 19 -30.5t-8 -37t-31.5 -19.5t-36.5 9q-27 18 -76 58 q-47 39 -72 55q-16 12 -19 32.5z" />
<glyph unicode="&#xc9;" horiz-adv-x="1040" d="M164 39v2v2q6 334 6 1311q-4 10 -4 20q0 23 16 37q14 16 37 16q11 0 21 -4q49 0 337.5 6.5t340.5 0.5q20 0 33.5 -15.5t13.5 -36t-15.5 -34t-36.5 -13.5q-12 6 -321 0t-324 -6v-207v-237q379 0 506 2q18 0 33.5 -14.5t15.5 -34t-14 -35t-35 -15.5q-125 -2 -506 -2 q0 -403 -6 -692q502 0 684 -4q20 0 33.5 -15.5t13.5 -36t-15 -33.5t-36 -13q-166 4 -715 4q-8 -2 -14 -2q-20 0 -34.5 14t-14.5 35zM449.5 1564.5q5.5 20.5 23.5 30.5q20 10 41 26.5t33 29.5l39 37q29 25 39 34q14 12 34.5 12.5t34 -15t13.5 -36t-17 -34.5q-6 -4 -35.5 -33 t-44.5 -39l-37 -33q-27 -20 -51 -35q-16 -10 -36.5 -5t-31 22.5t-5 38z" />
<glyph unicode="&#xca;" horiz-adv-x="1040" d="M164 39v2v2q6 334 6 1311q-4 10 -4 20q0 23 16 37q14 16 37 16q11 0 21 -4q49 0 337.5 6.5t340.5 0.5q20 0 33.5 -15.5t13.5 -36t-15.5 -34t-36.5 -13.5q-12 6 -321 0t-324 -6v-207v-237q379 0 506 2q18 0 33.5 -14.5t15.5 -34t-14 -35t-35 -15.5q-125 -2 -506 -2 q0 -403 -6 -692q502 0 684 -4q20 0 33.5 -15.5t13.5 -36t-15 -33.5t-36 -13q-166 4 -715 4q-8 -2 -14 -2q-20 0 -34.5 14t-14.5 35zM381 1546.5q0 20.5 16 32.5q29 29 58 70q16 20 20 26q16 18 33 25q45 23 90 -27q18 -16 74 -90q12 -16 9 -36.5t-18.5 -33t-36 -9.5 t-32.5 18q-43 57 -55 71l-4 -4q-35 -47 -72 -80q-14 -14 -34.5 -14t-34 15.5t-13.5 36z" />
<glyph unicode="&#xcb;" horiz-adv-x="1040" d="M164 39v2v2q6 334 6 1311q-4 10 -4 20q0 23 16 37q14 16 37 16q11 0 21 -4q49 0 337.5 6.5t340.5 0.5q20 0 33.5 -15.5t13.5 -36t-15.5 -34t-36.5 -13.5q-12 6 -321 0t-324 -6v-207v-237q379 0 506 2q18 0 33.5 -14.5t15.5 -34t-14 -35t-35 -15.5q-125 -2 -506 -2 q0 -403 -6 -692q502 0 684 -4q20 0 33.5 -15.5t13.5 -36t-15 -33.5t-36 -13q-166 4 -715 4q-8 -2 -14 -2q-20 0 -34.5 14t-14.5 35zM432 1585.5q0 20.5 14.5 34.5t35 14t34.5 -14t14 -34.5t-14 -35t-34.5 -14.5t-35 14.5t-14.5 35zM602 1581.5q0 20.5 14.5 34.5t35 14 t34.5 -14t14 -34.5t-14 -35t-34.5 -14.5t-35 14.5t-14.5 35z" />
<glyph unicode="&#xcc;" horiz-adv-x="325" d="M102.5 1626q1.5 21 16 35t35 12t34.5 -16q35 -39 82 -105q12 -16 9 -35.5t-19 -31.5t-35.5 -9t-31.5 19q-47 61 -78 96q-14 14 -12.5 35zM152 47v1333q0 20 14 35t34.5 15t35 -15t14.5 -35v-1333q0 -20 -14.5 -34.5t-35 -14.5t-34.5 14.5t-14 34.5z" />
<glyph unicode="&#xcd;" horiz-adv-x="364" d="M102.5 1515.5q2.5 20.5 16.5 32.5q57 47 114 115q12 14 33 16t36 -11t17.5 -33.5t-12.5 -37.5q-59 -70 -123 -122q-16 -14 -36.5 -12.5t-34 17t-11 36zM152 47v1333q0 20 14 35t34.5 15t35 -15t14.5 -35v-1333q0 -20 -14.5 -34.5t-35 -14.5t-34.5 14.5t-14 34.5z" />
<glyph unicode="&#xce;" horiz-adv-x="417" d="M74 1509.5q-2 20.5 12 34.5q25 27 58.5 77t56.5 62q29 16 59 3q23 -8 41 -33q25 -33 68 -121q8 -18 0.5 -36.5t-25.5 -28t-36.5 -2t-28.5 25.5q-29 59 -46 86l-8 -12q-37 -55 -65 -86q-14 -14 -35 -16.5t-35 12t-16 35zM152 47v1333q0 20 14 35t34.5 15t35 -15t14.5 -35 v-1333q0 -20 -14.5 -34.5t-35 -14.5t-34.5 14.5t-14 34.5z" />
<glyph unicode="&#xcf;" horiz-adv-x="364" d="M100 1572.5q0 20.5 14.5 35t35 14.5t35 -14.5t14.5 -35t-14.5 -34.5t-35 -14t-35 14t-14.5 34.5zM150 47v1333q0 20 14 35t34.5 15t35 -15t14.5 -35v-1333q0 -20 -14.5 -34.5t-35 -14.5t-34.5 14.5t-14 34.5zM219 1572.5q0 20.5 14.5 35t35 14.5t34.5 -14.5t14 -35 t-14 -34.5t-34.5 -14t-35 14t-14.5 34.5z" />
<glyph unicode="&#xd0;" horiz-adv-x="1138" d="M-33 782.5q2 20.5 17.5 33.5t35.5 11q49 -4 107 -6v303v269q0 20 14.5 34.5t35 14.5t34.5 -14.5t14 -34.5v-4q205 90 424 12q141 -51 243.5 -166t151 -255t50.5 -292q2 -154 -45.5 -290t-156 -244.5t-261.5 -147.5q-238 -61 -412 25q0 -20 -15.5 -34.5t-34.5 -14.5 t-33.5 15t-14.5 34q6 295 6 692q-61 2 -115 6q-20 2 -33.5 17.5t-11.5 36zM221 143q154 -100 385 -43q190 49 290.5 212t98.5 376q-2 209 -104 383q-100 172 -275 236q-205 74 -387 -25q-2 -2 -4 -2v-461q215 -2 232 -2q20 0 33.5 -15.5t13.5 -36t-15.5 -33.5t-36 -13 t-227.5 2q0 -328 -4 -578z" />
<glyph unicode="&#xd1;" horiz-adv-x="1130" d="M106 45q6 326 7 1339q0 20 14 35t35 15q23 0 37 -19q6 -4 10 -10q135 -201 381 -598q254 -412 395 -623v1207q0 20 14.5 34.5t35 14.5t34.5 -14.5t14 -34.5v-1366q0 -20 -14 -35t-35 -15q-35 0 -47 33q-162 231 -438 678l-338 537q0 -813 -6 -1178q0 -20 -15.5 -34.5 t-35 -14.5t-34 15.5t-14.5 33.5zM364 1481q-3 21 7 37q80 113 166 108q51 -2 120 -63q27 -23 35 -29t13 -6q18 8 47 71q8 18 27.5 25.5t38 -0.5t25.5 -27.5t-1 -37.5q-59 -127 -133 -129q-35 -2 -70 22q-16 10 -47 37q-43 39 -62 39q-31 2 -77 -68q-12 -16 -33 -19t-37 8 t-19 32z" />
<glyph unicode="&#xd2;" horiz-adv-x="1134" d="M178 561q-20 270 70 512q90 240 252 338q4 4 12 8l14 6l9 5q4 2 10 2q221 84 379 -101q139 -164 176 -469q35 -295 -47 -538q-94 -283 -303 -336q-258 -66 -418 125q-135 162 -154 448zM276 567q18 -256 132 -393q119 -143 317 -92q158 41 236 272q74 223 41 497.5 t-154 416.5q-117 135 -281 67q-143 -74 -227 -295q-82 -219 -64 -473zM481 1643.5q6 19.5 24 29.5t38 4q70 -20 164 -94q16 -12 18 -32.5t-10.5 -37t-32.5 -18.5t-37 10q-78 61 -131 78q-18 6 -28.5 23.5t-4.5 37z" />
<glyph unicode="&#xd3;" horiz-adv-x="1134" d="M178 561q-20 270 70 512q90 240 252 338q4 4 12 8l14 6l9 5q4 2 10 2q221 84 379 -101q139 -164 176 -469q35 -295 -47 -538q-94 -283 -303 -336q-258 -66 -418 125q-135 162 -154 448zM276 567q18 -256 132 -393q119 -143 317 -92q158 41 236 272q74 223 41 497.5 t-154 416.5q-117 135 -281 67q-143 -74 -227 -295q-82 -219 -64 -473zM518.5 1532q2.5 21 18.5 35q51 41 139 133q12 16 32.5 16t36 -13t15.5 -33.5t-15 -35.5q-90 -98 -147 -145q-14 -12 -34.5 -10t-34 17t-11 36z" />
<glyph unicode="&#xd4;" horiz-adv-x="1134" d="M178 561q-20 270 70 512q90 240 252 338q4 4 12 8l14 6l9 5q4 2 10 2q221 84 379 -101q139 -164 176 -469q35 -295 -47 -538q-94 -283 -303 -336q-258 -66 -418 125q-135 162 -154 448zM276 567q18 -256 132 -393q119 -143 317 -92q158 41 236 272q74 223 41 497.5 t-154 416.5q-117 135 -281 67q-143 -74 -227 -295q-82 -219 -64 -473zM469 1511.5q-2 20.5 12 36.5l31 37q23 27 33 37q37 43 71 53q47 12 95 -26q33 -27 75 -95q12 -16 7 -36.5t-21 -31.5t-36.5 -6t-30.5 21q-37 55 -58 74q-4 2 -6 4q-8 -6 -23 -23q-10 -10 -32 -36 l-31 -37q-12 -14 -32.5 -16.5t-36 11t-17.5 34z" />
<glyph unicode="&#xd5;" horiz-adv-x="1134" d="M178 561q-20 270 70 512q90 240 252 338q4 4 12 8l14 6l9 5q4 2 10 2q221 84 379 -101q139 -164 176 -469q35 -295 -47 -538q-94 -283 -303 -336q-258 -66 -418 125q-135 162 -154 448zM276 567q18 -256 132 -393q119 -143 317 -92q158 41 236 272q74 223 41 497.5 t-154 416.5q-117 135 -281 67q-143 -74 -227 -295q-82 -219 -64 -473zM432 1517.5q-2 20.5 10 36.5q53 68 109 78q41 10 92 -14q35 -14 45 -16q16 0 41 20q16 14 36.5 12t34 -17t11.5 -35.5t-16 -33.5q-55 -49 -115 -45q-27 2 -78 27q-23 10 -31 8q-20 -6 -51 -45 q-12 -16 -32.5 -18t-37 10t-18.5 32.5z" />
<glyph unicode="&#xd6;" horiz-adv-x="1134" d="M178 561q-20 270 70 512q90 240 252 338q4 4 12 8l14 6l9 5q4 2 10 2q221 84 379 -101q139 -164 176 -469q35 -295 -47 -538q-94 -283 -303 -336q-258 -66 -418 125q-135 162 -154 448zM276 567q18 -256 132 -393q119 -143 317 -92q158 41 236 272q74 223 41 497.5 t-154 416.5q-117 135 -281 67q-143 -74 -227 -295q-82 -219 -64 -473zM512 1562.5q0 20.5 14.5 35t35 14.5t34.5 -14.5t14 -35t-14 -35t-34.5 -14.5t-35 14.5t-14.5 35zM655 1568.5q0 20.5 14.5 35t35 14.5t35 -14.5t14.5 -35t-14.5 -34.5t-35 -14t-35 14t-14.5 34.5z" />
<glyph unicode="&#xd7;" horiz-adv-x="761" d="M182.5 793.5q1.5 19.5 17 34t35 12.5t33.5 -17l178 -200l166 215q14 16 34 18t36 -11.5t18 -32.5t-10 -36l-178 -229l195 -232q12 -16 10 -35.5t-18.5 -33t-36 -11t-33.5 18.5l-178 213l-166 -221q-12 -16 -33 -18.5t-37 10t-18 33t10 36.5l178 236l-190 215 q-14 16 -12.5 35.5z" />
<glyph unicode="&#xd8;" horiz-adv-x="1333" d="M80 38.5q0 20.5 12 35.5l144 159q-66 139 -78 328q-20 270 69 512q90 240 252 338q4 4 13 8l14 6l8 5q4 2 10 2q221 84 379 -101q70 -82 117 -211l180 205q14 14 34.5 15t35 -12t15.5 -33.5t-11 -34.5l-221 -250q16 -72 26 -148q35 -295 -47 -538q-94 -283 -303 -336 q-258 -68 -418 125q-14 14 -24 30l-121 -135q-14 -16 -34.5 -16t-36 13t-15.5 33.5zM256 567q8 -141 51 -252l637 719q-43 147 -117 234q-117 135 -280 67q-143 -74 -228 -295q-82 -221 -63 -473zM354 221q14 -25 33 -47q119 -143 318 -92q158 41 235 272q74 223 41 498 q-4 33 -10 66z" />
<glyph unicode="&#xd9;" horiz-adv-x="1003" d="M150 768q-2 186 30 631q2 20 17.5 33.5t36 11.5t34 -17.5t11.5 -35.5q-33 -438 -31 -623q0 -414 94 -569q27 -47 72 -81t90 -38q121 -10 221 151q70 113 131 310q2 4 4 10v835q0 20 14.5 35t35 15t34.5 -14.5t14 -35.5v-1353q0 -20 -14 -34.5t-34.5 -14.5t-35 14 t-14.5 35v241q-25 -51 -51 -94q-133 -215 -313 -198q-74 6 -137.5 55t-102.5 113q-106 178 -106 618zM431.5 1563.5q-7.5 19.5 0.5 38t28 25.5t38 -1q90 -41 164 -104q14 -12 16 -33t-11.5 -36t-34 -17t-36.5 12q-61 53 -139 88q-18 8 -25.5 27.5z" />
<glyph unicode="&#xda;" horiz-adv-x="1003" d="M150 768q-2 186 30 631q2 20 17.5 33.5t36 11.5t34 -17.5t11.5 -35.5q-33 -438 -31 -623q0 -414 94 -569q27 -47 72 -81t90 -38q121 -10 221 151q70 113 131 310q2 4 4 10v835q0 20 14.5 35t35 15t34.5 -14.5t14 -35.5v-1353q0 -20 -14 -34.5t-34.5 -14.5t-35 14 t-14.5 35v241q-25 -51 -51 -94q-133 -215 -313 -198q-74 6 -137.5 55t-102.5 113q-106 178 -106 618zM444.5 1491q2.5 21 18.5 33q117 90 162 121q16 10 35.5 7t30.5 -20.5t8 -37t-21 -31.5q-41 -27 -154 -117q-16 -12 -36.5 -10t-33 18t-10 37z" />
<glyph unicode="&#xdb;" horiz-adv-x="1003" d="M150 768q-2 186 30 631q2 20 17.5 33.5t36 11.5t34 -17.5t11.5 -35.5q-33 -438 -31 -623q0 -414 94 -569q27 -47 72 -81t90 -38q121 -10 221 151q70 113 131 310q2 4 4 10v835q0 20 14.5 35t35 15t34.5 -14.5t14 -35.5v-1353q0 -20 -14 -34.5t-34.5 -14.5t-35 14 t-14.5 35v241q-25 -51 -51 -94q-133 -215 -313 -198q-74 6 -137.5 55t-102.5 113q-106 178 -106 618zM383 1532q0 21 14 33q35 33 72 84l25 32q18 20 36 29q51 23 103 -35q25 -27 90 -123q10 -18 7 -37.5t-20.5 -30.5t-37 -8t-31.5 19q-59 88 -80 113l-12 -19 q-41 -55 -82 -94q-16 -14 -36.5 -14t-34 15t-13.5 36z" />
<glyph unicode="&#xdc;" horiz-adv-x="1003" d="M150 768q-2 186 30 631q2 20 17.5 33.5t36 11.5t34 -17.5t11.5 -35.5q-33 -438 -31 -623q0 -414 94 -569q27 -47 72 -81t90 -38q121 -10 221 151q70 113 131 310q2 4 4 10v835q0 20 14.5 35t35 15t34.5 -14.5t14 -35.5v-1353q0 -20 -14 -34.5t-34.5 -14.5t-35 14 t-14.5 35v241q-25 -51 -51 -94q-133 -215 -313 -198q-74 6 -137.5 55t-102.5 113q-106 178 -106 618zM420 1544.5q0 20.5 14.5 34.5t34.5 14t34.5 -14t14.5 -34.5t-14.5 -35t-34.5 -14.5t-34.5 14.5t-14.5 35zM614 1544.5q0 20.5 14.5 34.5t35 14t35 -14t14.5 -34.5 t-14.5 -35t-35 -14.5t-35 14.5t-14.5 35z" />
<glyph unicode="&#xdd;" horiz-adv-x="1026" d="M127 1399.5q6 19.5 24.5 29t38 3t27.5 -24.5q125 -248 371 -653l303 653q10 18 28.5 25.5t37 -2t25.5 -28t-1 -36.5l-199 -426l-239 -510q-109 -221 -217 -416q-10 -16 -30 -22t-37 4t-23.5 29.5t4.5 37.5q147 265 297 584q-279 459 -406 715q-10 18 -4 37.5z M482.5 1474.5q3.5 20.5 19.5 32.5l33 21q14 12 17 13t11 8t9 9.5t15.5 14.5t28.5 26q14 12 35 12.5t34 -15t13 -36t-16 -34.5q-55 -51 -56 -52t-67 -49q-16 -10 -36.5 -7t-32 19.5t-8 37z" />
<glyph unicode="&#xde;" horiz-adv-x="993" d="M150 47v1333q0 20 14 35t34.5 15t35 -14.5t14.5 -35.5v-219q16 2 75.5 8.5t92.5 8.5t85 3t96 -4.5t83 -15.5q109 -29 176.5 -93t85.5 -150q16 -86 -20.5 -173.5t-120.5 -158.5q-82 -70 -269 -103q-131 -23 -274 -22q-6 0 -10 2v-416q0 -20 -14.5 -34.5t-35 -14.5 t-34.5 14.5t-14 34.5zM248 557q4 2 10 2q135 0 258 21q160 29 219 79q133 115 111 238q-12 55 -59.5 101t-131.5 69q-43 12 -100 14t-88 1t-117 -9t-98 -10h-4v-506z" />
<glyph unicode="&#xdf;" horiz-adv-x="1060" d="M125 968.5q0 71.5 8 114.5t24.5 98.5t41.5 98.5q45 76 131 118t180 44q100 2 183 -43t118 -139q84 -225 -90 -424q-43 -49 -98 -95q102 -14 147 -39q127 -68 196.5 -211t39.5 -284q-20 -98 -97 -154q-74 -55 -172 -69q-88 -14 -181 1t-161 52q-18 10 -24 29.5t4 37 t29.5 23.5t35.5 -4q55 -29 132 -41t149 -2q164 25 190 147q23 109 -32.5 222.5t-153.5 166.5q-33 16 -127 31q-57 6 -66 8q-18 4 -28 8.5t-19 10.5q-20 16 -20 41q0 23 16 41q6 6 17 14q2 2 43 33q66 51 106 96q135 154 70 328q-20 57 -75.5 88t-129.5 28 q-72 -2 -135.5 -32.5t-91.5 -79.5q-23 -37 -36 -83t-19.5 -81t-6.5 -101.5t1 -91t7.5 -105.5t6.5 -93q33 -526 36 -623q0 -20 -13 -35.5t-33.5 -15.5t-36 13.5t-15.5 33.5q-4 96 -37 619q0 14 -6 91t-7 107.5t-1 102z" />
<glyph unicode="&#xe0;" horiz-adv-x="851" d="M35 342q0 78 29.5 150.5t85 130t141.5 90t190 28.5q127 -6 207 -61q-18 141 -57 203q-23 35 -65 54t-87 15q-78 -6 -133 -26q-57 -23 -123 -72q-16 -10 -36.5 -7t-32 19.5t-8 37t19.5 32.5q76 53 145.5 80.5t159.5 34.5q70 6 137.5 -25t104.5 -90q78 -125 90 -455 q4 -111 4 -174t-2 -159.5t-2 -129.5q0 -20 -14.5 -34.5t-35 -14.5t-34.5 14.5t-14 34.5v52q-109 -59 -179 -72q-117 -18 -213 3.5t-155.5 72.5t-91 119.5t-31.5 148.5zM133 342q0 -121 95.5 -198.5t281.5 -47.5q18 2 36.5 8.5t43.5 18.5l35 16q12 6 42.5 23.5t39.5 21.5 q4 178 -2 293q0 33 -3 66q-10 4 -16 10q-47 49 -92 70q-45 18 -117 20q-160 6 -252 -86t-92 -215zM335 1270.5q-3 19.5 8 37t31 20.5t36 -7l34 -23q18 -12 20.5 -13t12.5 -9l12.5 -10t18.5 -17l33 -24q14 -14 16 -35t-11.5 -36t-33.5 -17t-35 12l-31 25q-16 12 -18 15t-10 9 t-11.5 7t-18.5 12.5t-32.5 22.5t-20.5 30.5z" />
<glyph unicode="&#xe1;" horiz-adv-x="851" d="M35 342q0 78 29.5 150.5t85 130t141.5 90t190 28.5q127 -6 207 -61q-18 141 -57 203q-23 35 -65 54t-87 15q-78 -6 -133 -26q-57 -23 -123 -72q-16 -10 -36.5 -7t-32 19.5t-8 37t19.5 32.5q76 53 145.5 80.5t159.5 34.5q70 6 137.5 -25t104.5 -90q78 -125 90 -455 q4 -111 4 -174t-2 -159.5t-2 -129.5q0 -20 -14.5 -34.5t-35 -14.5t-34.5 14.5t-14 34.5v52q-109 -59 -179 -72q-117 -18 -213 3.5t-155.5 72.5t-91 119.5t-31.5 148.5zM133 342q0 -121 95.5 -198.5t281.5 -47.5q18 2 36.5 8.5t43.5 18.5l35 16q12 6 42.5 23.5t39.5 21.5 q4 178 -2 293q0 33 -3 66q-10 4 -16 10q-47 49 -92 70q-45 18 -117 20q-160 6 -252 -86t-92 -215zM367 1139q0 21 16 35q145 135 170 155q16 12 35.5 10t33 -18t11.5 -35.5t-19 -34.5q-20 -16 -165 -151q-14 -12 -35 -12.5t-34 15t-13 36.5z" />
<glyph unicode="&#xe2;" horiz-adv-x="851" d="M35 342q0 78 29.5 150.5t85 130t141.5 90t190 28.5q127 -6 207 -61q-18 141 -57 203q-23 35 -65 54t-87 15q-78 -6 -133 -26q-57 -23 -123 -72q-16 -10 -36.5 -7t-32 19.5t-8 37t19.5 32.5q76 53 145.5 80.5t159.5 34.5q70 6 137.5 -25t104.5 -90q78 -125 90 -455 q4 -111 4 -174t-2 -159.5t-2 -129.5q0 -20 -14.5 -34.5t-35 -14.5t-34.5 14.5t-14 34.5v52q-109 -59 -179 -72q-117 -18 -213 3.5t-155.5 72.5t-91 119.5t-31.5 148.5zM133 342q0 -121 95.5 -198.5t281.5 -47.5q18 2 36.5 8.5t43.5 18.5l35 16q12 6 42.5 23.5t39.5 21.5 q4 178 -2 293q0 33 -3 66q-10 4 -16 10q-47 49 -92 70q-45 18 -117 20q-160 6 -252 -86t-92 -215zM279 1123.5q-6 19.5 4 37.5q6 8 63 123q14 29 25 43q20 27 45 33q33 6 61 -17q14 -10 35 -34q2 -4 90 -127q12 -16 9 -37t-19.5 -32t-36.5 -8t-31 19q-16 20 -37 47l-28 46 q-12 16 -23 28l-2 -4l-65 -129q-10 -16 -30 -22.5t-37 4t-23 30zM418 1264q0 -2 4 -2q-2 4 -4 4v-2z" />
<glyph unicode="&#xe3;" horiz-adv-x="851" d="M35 342q0 78 29.5 150.5t85 130t141.5 90t190 28.5q127 -6 207 -61q-18 141 -57 203q-23 35 -65 54t-87 15q-78 -6 -133 -26q-57 -23 -123 -72q-16 -10 -36.5 -7t-32 19.5t-8 37t19.5 32.5q76 53 145.5 80.5t159.5 34.5q70 6 137.5 -25t104.5 -90q78 -125 90 -455 q4 -111 4 -174t-2 -159.5t-2 -129.5q0 -20 -14.5 -34.5t-35 -14.5t-34.5 14.5t-14 34.5v52q-109 -59 -179 -72q-117 -18 -213 3.5t-155.5 72.5t-91 119.5t-31.5 148.5zM133 342q0 -121 95.5 -198.5t281.5 -47.5q18 2 36.5 8.5t43.5 18.5l35 16q12 6 42.5 23.5t39.5 21.5 q4 178 -2 293q0 33 -3 66q-10 4 -16 10q-47 49 -92 70q-45 18 -117 20q-160 6 -252 -86t-92 -215zM267 1130.5q-7 18.5 1 36.5q55 113 123 125q49 8 113 -43q47 -37 57 -41q14 -4 39 27q12 16 32.5 18t37 -10t18.5 -32.5t-10 -36.5q-66 -82 -141 -60q-33 8 -95 60 q-29 23 -34 22q-18 -4 -50 -70q-10 -18 -28.5 -25t-37 2t-25.5 27.5z" />
<glyph unicode="&#xe4;" horiz-adv-x="851" d="M35 342q0 78 29.5 150.5t85 130t141.5 90t190 28.5q127 -6 207 -61q-18 141 -57 203q-23 35 -65 54t-87 15q-78 -6 -133 -26q-57 -23 -123 -72q-16 -10 -36.5 -7t-32 19.5t-8 37t19.5 32.5q76 53 145.5 80.5t159.5 34.5q70 6 137.5 -25t104.5 -90q78 -125 90 -455 q4 -111 4 -174t-2 -159.5t-2 -129.5q0 -20 -14.5 -34.5t-35 -14.5t-34.5 14.5t-14 34.5v52q-109 -59 -179 -72q-117 -18 -213 3.5t-155.5 72.5t-91 119.5t-31.5 148.5zM133 342q0 -121 95.5 -198.5t281.5 -47.5q18 2 36.5 8.5t43.5 18.5l35 16q12 6 42.5 23.5t39.5 21.5 q4 178 -2 293q0 33 -3 66q-10 4 -16 10q-47 49 -92 70q-45 18 -117 20q-160 6 -252 -86t-92 -215zM334 1181.5q0 20.5 14 35t34.5 14.5t35 -14.5t14.5 -35t-14.5 -34.5t-35 -14t-34.5 14t-14 34.5zM506 1177.5q0 20.5 14.5 35t34.5 14.5t34.5 -14.5t14.5 -35t-14.5 -35 t-34.5 -14.5t-34.5 14.5t-14.5 35z" />
<glyph unicode="&#xe5;" horiz-adv-x="851" d="M35 342q0 78 29.5 150.5t85 130t141.5 90t190 28.5q127 -6 207 -61q-18 141 -57 203q-23 35 -65 54t-87 15q-78 -6 -133 -26q-57 -23 -123 -72q-16 -10 -36.5 -7t-32 19.5t-8 37t19.5 32.5q76 53 145.5 80.5t159.5 34.5q70 6 137.5 -25t104.5 -90q78 -125 90 -455 q4 -111 4 -174t-2 -159.5t-2 -129.5q0 -20 -14.5 -34.5t-35 -14.5t-34.5 14.5t-14 34.5v52q-109 -59 -179 -72q-117 -18 -213 3.5t-155.5 72.5t-91 119.5t-31.5 148.5zM133 342q0 -121 95.5 -198.5t281.5 -47.5q18 2 36.5 8.5t43.5 18.5l35 16q12 6 42.5 23.5t39.5 21.5 q4 178 -2 293q0 33 -3 66q-10 4 -16 10q-47 49 -92 70q-45 18 -117 20q-160 6 -252 -86t-92 -215zM270 1305q2 72 59.5 123t141.5 47q66 -4 115 -46.5t67 -101.5q20 -63 -3 -123.5t-95 -89.5q-31 -14 -78 -10l-31 4q-14 2 -22 2q-33 0 -45 31q-55 23 -84 66.5t-25 97.5z M367 1298q0 -29 29.5 -56.5t107.5 -29.5q10 0 20 -6q55 29 35 92q-10 33 -35.5 54.5t-56.5 23.5q-43 2 -70.5 -22.5t-29.5 -55.5z" />
<glyph unicode="&#xe6;" horiz-adv-x="1542" d="M55 385q20 150 142 257.5t305 98.5q121 -4 198 -53q-6 82 -20 127q-43 135 -176 135q-127 0 -260 -96q-16 -10 -37 -7t-32 19.5t-8 37t19 32.5q160 113 318 113q178 0 252 -158q37 61 96 96q113 63 258 19q133 -41 226.5 -158t82.5 -266q2 -6 2 -13q0 -20 -15 -33.5 t-36 -13.5q-39 0 -187.5 6.5t-186.5 5t-183 -7.5q12 -145 4 -262q10 -18 24.5 -41.5t20.5 -34.5l17 -22q10 -14 22 -24.5t31 -22.5q106 -76 268 -25q74 25 134.5 70t88.5 100q8 18 27.5 24.5t38 -3t25 -28.5t-4.5 -38q-39 -76 -113.5 -133t-164.5 -86q-84 -29 -183.5 -21.5 t-173.5 58.5q-59 43 -96 98q-8 -4 -18 -4q-104 -137 -309 -135q-209 2 -312.5 116.5t-83.5 272.5zM154 371q-16 -111 57.5 -193t239.5 -84q96 -2 155 29q57 31 101 106q4 6 8 11q14 133 -4 309l-4 4q-47 49 -92.5 68.5t-116.5 21.5q-143 6 -236.5 -76t-107.5 -196zM797 700 q2 -12 3 -37.5t3 -37.5q61 6 138 7t116 0t144.5 -5t121.5 -4q-6 100 -75.5 180t-166.5 108q-104 33 -180 -10q-84 -49 -98 -184q-2 -8 -6 -17z" />
<glyph unicode="&#xe7;" horiz-adv-x="788" d="M14 442.5q2 128.5 41 250.5t105 214q115 160 254 158q160 -2 272 -223q10 -18 4 -38t-24.5 -29t-38 -3t-27.5 25q-88 170 -186 170q-88 2 -174 -117q-88 -125 -117 -297t29 -311q37 -84 106.5 -129t141 -44t141 46t108.5 129q8 18 27.5 25t38 -1t26 -27.5t-1.5 -37.5 q-47 -102 -130 -161.5t-179 -70.5q-2 -4 -6 -8q-12 -18 -25.5 -35.5t-15.5 -20.5t-11.5 -13.5t-10.5 -12.5t-17 -17.5t-30.5 -30.5t-35 -15t-35 14t-14.5 34.5t15 35.5q55 57 71 78q-174 43 -254 221q-49 113 -47 241.5z" />
<glyph unicode="&#xe8;" horiz-adv-x="860" d="M51 338q-16 125 6 266q20 143 80 242q76 127 178 180q100 53 207 25q100 -27 178 -119t115 -230q6 -16 -2 -32.5t-25 -24.5q-10 -6 -22 -6q-90 -6 -185.5 -7t-232.5 1t-186 2q-31 -145 -12 -285q12 -92 64 -159.5t125 -94t148.5 -24.5t144 50t103.5 130q8 20 26.5 27.5 t38 -1t27 -27t-1.5 -36.5q-41 -96 -112.5 -155.5t-151.5 -78t-166 -3t-157.5 61.5t-123 124t-63.5 174zM193 733q436 -2 509 0q-35 92 -90 149.5t-114 73.5q-70 18 -141.5 -19.5t-133.5 -139.5q-18 -29 -30 -64zM275.5 1259.5q-3.5 20.5 9 36t33 18.5t36.5 -9l142 -119 q14 -12 16 -32.5t-11.5 -36t-34 -17.5t-36.5 12q-104 90 -137 115q-14 12 -17.5 32.5z" />
<glyph unicode="&#xe9;" horiz-adv-x="860" d="M51 338q-16 125 6 266q20 143 80 242q76 127 178 180q100 53 207 25q100 -27 178 -119t115 -230q6 -16 -2 -32.5t-25 -24.5q-10 -6 -22 -6q-90 -6 -185.5 -7t-232.5 1t-186 2q-31 -145 -12 -285q12 -92 64 -159.5t125 -94t148.5 -24.5t144 50t103.5 130q8 20 26.5 27.5 t38 -1t27 -27t-1.5 -36.5q-41 -96 -112.5 -155.5t-151.5 -78t-166 -3t-157.5 61.5t-123 124t-63.5 174zM193 733q436 -2 509 0q-35 92 -90 149.5t-114 73.5q-70 18 -141.5 -19.5t-133.5 -139.5q-18 -29 -30 -64zM329 1161.5q3 20.5 19 32.5q23 14 42.5 32.5t51.5 51.5l43 45 q14 14 35 14t35 -14t14 -34.5t-14 -35.5l-33 -32l-37 -39q-14 -14 -36.5 -35t-42.5 -35q-16 -10 -37 -7t-32 19.5t-8 37z" />
<glyph unicode="&#xea;" horiz-adv-x="860" d="M51 338q-16 125 6 266q20 143 80 242q76 127 178 180q100 53 207 25q100 -27 178 -119t115 -230q6 -16 -2 -32.5t-25 -24.5q-10 -6 -22 -6q-90 -6 -185.5 -7t-232.5 1t-186 2q-31 -145 -12 -285q12 -92 64 -159.5t125 -94t148.5 -24.5t144 50t103.5 130q8 20 26.5 27.5 t38 -1t27 -27t-1.5 -36.5q-41 -96 -112.5 -155.5t-151.5 -78t-166 -3t-157.5 61.5t-123 124t-63.5 174zM193 733q436 -2 509 0q-35 92 -90 149.5t-114 73.5q-70 18 -141.5 -19.5t-133.5 -139.5q-18 -29 -30 -64zM288 1137q-3 21 9 37q37 49 82 116q16 25 24 35q23 27 52 27 q29 2 53 -23q10 -10 27 -35q55 -78 83 -114q12 -16 10.5 -37t-18 -33t-37 -10t-32.5 18q-35 47 -82 115q-47 -74 -84 -121q-12 -14 -32.5 -17t-36 9t-18.5 33z" />
<glyph unicode="&#xeb;" horiz-adv-x="860" d="M51 338q-16 125 6 266q20 143 80 242q76 127 178 180q100 53 207 25q100 -27 178 -119t115 -230q6 -16 -2 -32.5t-25 -24.5q-10 -6 -22 -6q-90 -6 -185.5 -7t-232.5 1t-186 2q-31 -145 -12 -285q12 -92 64 -159.5t125 -94t148.5 -24.5t144 50t103.5 130q8 20 26.5 27.5 t38 -1t27 -27t-1.5 -36.5q-41 -96 -112.5 -155.5t-151.5 -78t-166 -3t-157.5 61.5t-123 124t-63.5 174zM193 733q436 -2 509 0q-35 92 -90 149.5t-114 73.5q-70 18 -141.5 -19.5t-133.5 -139.5q-18 -29 -30 -64zM305 1200.5q0 20.5 14.5 34.5t35 14t34.5 -14t14 -34.5 t-14 -35t-34.5 -14.5t-35 14.5t-14.5 35zM465 1200.5q0 20.5 14.5 34.5t35 14t34.5 -14t14 -34.5t-14 -35t-34.5 -14.5t-35 14.5t-14.5 35z" />
<glyph unicode="&#xec;" horiz-adv-x="264" d="M41 1236.5q2 20.5 17.5 34t36 11.5t32.5 -18l82 -97q12 -14 10 -34.5t-17.5 -34t-36 -11t-34.5 18.5l-78 96q-14 14 -12 34.5zM84 977q0 18 14.5 33.5t34 15.5t34.5 -14.5t15 -34.5q2 -100 2 -938q0 -20 -14 -34.5t-34.5 -14.5t-35 14t-14.5 35q0 838 -2 938z" />
<glyph unicode="&#xed;" horiz-adv-x="307" d="M65 1137q-3 21 9 37l98 135q12 16 32.5 19t37 -8t19.5 -31.5t-7 -37.5l-102 -139q-12 -14 -33 -17t-36 9t-18 33zM84 977q0 18 14.5 33.5t34 15.5t34.5 -14.5t15 -34.5q2 -100 2 -938q0 -20 -14 -34.5t-34.5 -14.5t-35 14t-14.5 35q0 838 -2 938z" />
<glyph unicode="&#xee;" horiz-adv-x="358" d="M32 1112.5q-7 18.5 1 38.5q35 78 59 113q43 55 94 41q37 -8 70 -62q16 -25 55 -100q10 -18 4 -38t-24.5 -29t-38 -3t-27.5 25q-39 72 -51 92q-4 4 -6 8q-18 -25 -45 -88q-8 -18 -26.5 -25.5t-38 1t-26.5 27zM88 977q0 18 14.5 33.5t34 15.5t34.5 -14.5t15 -34.5 q2 -100 2 -938q0 -20 -14 -34.5t-34.5 -14.5t-35 14t-14.5 35q0 838 -2 938z" />
<glyph unicode="&#xef;" horiz-adv-x="307" d="M27 1175.5q0 20.5 14 35t34.5 14.5t35 -14.5t14.5 -35t-14.5 -35t-35 -14.5t-34.5 14.5t-14 35zM82 977q0 18 14.5 33.5t34 15.5t34.5 -14.5t15 -34.5q2 -100 2 -938q0 -20 -14 -34.5t-34.5 -14.5t-35 14t-14.5 35q0 838 -2 938zM162 1169.5q0 20.5 14 35t34.5 14.5 t35 -14.5t14.5 -35t-14.5 -35t-35 -14.5t-34.5 14.5t-14 35z" />
<glyph unicode="&#xf0;" horiz-adv-x="702" d="M89 227q-19 88 3.5 168t71.5 166q92 156 242 287q-37 69 -84 139l-70 -63q-16 -14 -36.5 -12.5t-34 17t-11.5 36t16 32.5q45 39 78 70q-41 55 -100 125q-12 14 -10 34.5t17 34t35.5 11.5t35.5 -19l92 -116l65 67q14 14 34 14.5t35 -14t15 -34t-14 -35.5l-76 -78 q49 -74 90 -148q14 8 27 17q18 12 37.5 7t31 -22.5t6.5 -37t-21.5 -29.5t-33.5 -23l33 -67l33 -74q20 -45 31.5 -78t25 -79t18.5 -85t5 -82t-8 -84q-16 -72 -68.5 -131t-122.5 -92q-63 -35 -147 -30.5t-146 57.5q-76 63 -95 151zM246 150q78 -63 190 -13q51 25 88 67t45 89 q23 98 -11.5 209t-104.5 254q-127 -115 -203 -244q-143 -244 -4 -362z" />
<glyph unicode="&#xf1;" horiz-adv-x="854" d="M82 521q0 95 2 228.5t6 243.5q0 20 15.5 33.5t36 13.5t33.5 -15t13 -36q-2 -31 -2 -63q18 25 39 43q94 86 209 96t209 -57.5t127 -192.5q27 -104 35 -230t2 -327t-6 -225q0 -20 -14.5 -34.5t-35 -14.5t-35 14t-14.5 35q0 39 5.5 231.5t-1 310t-30.5 216.5 q-23 88 -88.5 136t-145.5 40q-82 -8 -151 -72q-41 -37 -109 -170q-2 -8 -1 -343t1 -345q0 -20 -14 -34.5t-34.5 -14.5t-35 14t-14.5 35q0 78 -1 233.5t-1 250.5zM252 1162.5q-6 19.5 4 37.5q45 92 109 103q45 8 106 -33q45 -31 57 -35q16 -4 37 16q14 14 35 14.5t35 -14 t14 -35t-14 -34.5q-59 -59 -131 -41q-27 8 -88 47q-29 18 -35 18q-16 -6 -39 -51q-8 -18 -27.5 -24.5t-38 3t-24.5 29z" />
<glyph unicode="&#xf2;" horiz-adv-x="907" d="M41 557q14 123 61.5 231.5t137 186.5t204.5 84q12 6 27 4q109 -12 191.5 -70.5t129 -143.5t67 -183.5t12 -198.5t-43 -191.5t-94 -164t-152 -109.5t-202.5 -20q-98 14 -172 71.5t-112 140t-51 175t-3 188.5zM139 547q-20 -182 47.5 -314.5t208.5 -152.5q158 -25 260.5 91 t116.5 304q14 180 -61 320q-78 139 -228 166h-12q-127 4 -219 -116t-113 -298zM283 1320.5q-2 20.5 11 36t34 17.5t37 -12q29 -25 67 -66q51 -55 60 -63q14 -14 14 -34.5t-14.5 -35t-35 -14.5t-34.5 14q-6 6 -62 66q-35 37 -61 59q-14 12 -16 32.5z" />
<glyph unicode="&#xf3;" horiz-adv-x="907" d="M41 557q14 123 61.5 231.5t137 186.5t204.5 84q12 6 27 4q109 -12 191.5 -70.5t129 -143.5t67 -183.5t12 -198.5t-43 -191.5t-94 -164t-152 -109.5t-202.5 -20q-98 14 -172 71.5t-112 140t-51 175t-3 188.5zM139 547q-20 -182 47.5 -314.5t208.5 -152.5q158 -25 260.5 91 t116.5 304q14 180 -61 320q-78 139 -228 166h-12q-127 4 -219 -116t-113 -298zM326 1151q0 21 12 35q98 106 145 168q12 14 33 17t36 -9t18 -32.5t-9 -37.5q-49 -63 -149 -172q-14 -16 -35 -16t-36 13t-15 34z" />
<glyph unicode="&#xf4;" horiz-adv-x="907" d="M41 557q14 123 61.5 231.5t137 186.5t204.5 84q12 6 27 4q109 -12 191.5 -70.5t129 -143.5t67 -183.5t12 -198.5t-43 -191.5t-94 -164t-152 -109.5t-202.5 -20q-98 14 -172 71.5t-112 140t-51 175t-3 188.5zM139 547q-20 -182 47.5 -314.5t208.5 -152.5q158 -25 260.5 91 t116.5 304q14 180 -61 320q-78 139 -228 166h-12q-127 4 -219 -116t-113 -298zM284 1153.5q-5 20.5 7 36.5q20 31 45.5 74t34.5 55q18 27 30 37q29 29 64 18q23 -6 43 -33q8 -12 22 -38q43 -80 70 -119q10 -16 7 -36t-20.5 -31t-37 -8t-31.5 21q-33 49 -72 123l-73 -116 q-10 -16 -30.5 -21.5t-37 6t-21.5 32z" />
<glyph unicode="&#xf5;" horiz-adv-x="907" d="M41 557q14 123 61.5 231.5t137 186.5t204.5 84q12 6 27 4q109 -12 191.5 -70.5t129 -143.5t67 -183.5t12 -198.5t-43 -191.5t-94 -164t-152 -109.5t-202.5 -20q-98 14 -172 71.5t-112 140t-51 175t-3 188.5zM139 547q-20 -182 47.5 -314.5t208.5 -152.5q158 -25 260.5 91 t116.5 304q14 180 -61 320q-78 139 -228 166h-12q-127 4 -219 -116t-113 -298zM254 1176q27 74 55 112q33 45 78 49q39 4 74 -26q18 -16 43 -49q29 -35 28 -37l15 43q6 20 23.5 30.5t37 4t29.5 -23.5t4 -36q-18 -63 -39 -94q-35 -47 -84 -33q-29 8 -57 41q-4 6 -35 47 q-18 23 -29 33l-2 2q-4 -4 -8 -10q-18 -27 -39 -86q-8 -18 -26.5 -27.5t-37 -2.5t-27.5 26t-3 37z" />
<glyph unicode="&#xf6;" horiz-adv-x="907" d="M41 557q14 123 61.5 231.5t137 186.5t204.5 84q12 6 27 4q109 -12 191.5 -70.5t129 -143.5t67 -183.5t12 -198.5t-43 -191.5t-94 -164t-152 -109.5t-202.5 -20q-98 14 -172 71.5t-112 140t-51 175t-3 188.5zM139 547q-20 -182 47.5 -314.5t208.5 -152.5q158 -25 260.5 91 t116.5 304q14 180 -61 320q-78 139 -228 166h-12q-127 4 -219 -116t-113 -298zM299 1204.5q0 20.5 14.5 34.5t35 14t34.5 -14t14 -34.5t-14 -35t-34.5 -14.5t-35 14.5t-14.5 35zM463 1204.5q0 20.5 14.5 34.5t34.5 14t34.5 -14t14.5 -34.5t-14.5 -35t-34.5 -14.5t-34.5 14.5 t-14.5 35z" />
<glyph unicode="&#xf7;" horiz-adv-x="929" d="M244 487.5q0 20.5 14.5 35t34.5 14.5h541q20 0 34.5 -14.5t14.5 -35t-14.5 -35t-34.5 -14.5h-541q-20 0 -34.5 14.5t-14.5 35zM510 307.5q0 20.5 14.5 34.5t35 14t34.5 -14t14 -34.5t-14 -35t-34.5 -14.5t-35 14.5t-14.5 35zM516 657.5q0 20.5 14.5 35t35 14.5 t34.5 -14.5t14 -35t-14 -35t-34.5 -14.5t-35 14.5t-14.5 35z" />
<glyph unicode="&#xf8;" horiz-adv-x="976" d="M43 557q14 123 61.5 231.5t137.5 186.5t204 84q12 6 27 4q188 -20 297 -176l84 104q14 16 33.5 18.5t36 -11t18.5 -33t-10 -35.5l-111 -135q66 -150 51 -328q-8 -100 -42.5 -191.5t-94 -164t-151.5 -109.5t-203 -20q-96 14 -168 69l-76 -94q-14 -16 -33.5 -18t-36 11 t-18.5 32.5t10 35.5l84 103q-63 84 -87.5 199.5t-12.5 236.5zM141 547q-23 -213 68 -346l496 606q-80 129 -220 154h-12q-127 4 -219 -116t-113 -298zM276 127q53 -37 121 -47q158 -25 260.5 91t116.5 304q11 126 -24 232z" />
<glyph unicode="&#xf9;" horiz-adv-x="823" d="M74 563q-4 266 16 438q2 20 18.5 33t37 10.5t32.5 -19t10 -36.5q-20 -164 -16 -424q6 -301 47 -393q49 -113 156 -111q49 0 92 28t72 81q29 57 63 252q27 150 41 278q4 27 14 220q0 10 2 43v16v2v4q0 2 3 6q0 4 2 6q8 18 24 27q20 8 41 0q12 -6 21 -18q4 -6 6 -15 q2 -2 2 -6v-10q0 -590 22 -961q2 -18 -12 -33.5t-33.5 -17.5t-35 12.5t-17.5 34.5q-8 119 -12 252q-23 -94 -45 -137q-39 -76 -105 -119q-68 -43 -143 -43q-78 -2 -144.5 42t-103.5 126q-49 111 -55 432zM283 1226.5q0 20.5 13 36t34 15.5t35 -12q25 -25 67 -58l70 -57 q16 -12 18 -32.5t-11 -36t-33.5 -17.5t-35.5 12l-69 56q-45 35 -72 59q-16 14 -16 34.5z" />
<glyph unicode="&#xfa;" horiz-adv-x="823" d="M74 563q-4 266 16 438q2 20 18.5 33t37 10.5t32.5 -19t10 -36.5q-20 -164 -16 -424q6 -301 47 -393q49 -113 156 -111q49 0 92 28t72 81q29 57 63 252q27 150 41 278q4 27 14 220q0 10 2 43v16v2v4q0 2 3 6q0 4 2 6q8 18 24 27q20 8 41 0q12 -6 21 -18q4 -6 6 -15 q2 -2 2 -6v-10q0 -590 22 -961q2 -18 -12 -33.5t-33.5 -17.5t-35 12.5t-17.5 34.5q-8 119 -12 252q-23 -94 -45 -137q-39 -76 -105 -119q-68 -43 -143 -43q-78 -2 -144.5 42t-103.5 126q-49 111 -55 432zM338 1114.5q0 20.5 16 34.5q23 20 74 74q49 49 80 75 q14 14 34.5 12.5t35 -16t12.5 -35t-17 -34.5l-75 -72q-53 -55 -78 -78q-14 -12 -34.5 -12t-34 15.5t-13.5 36z" />
<glyph unicode="&#xfb;" horiz-adv-x="823" d="M74 563q-4 266 16 438q2 20 18.5 33t37 10.5t32.5 -19t10 -36.5q-20 -164 -16 -424q6 -301 47 -393q49 -113 156 -111q49 0 92 28t72 81q29 57 63 252q27 150 41 278q4 27 14 220q0 10 2 43v16v2v4q0 2 3 6q0 4 2 6q8 18 24 27q20 8 41 0q12 -6 21 -18q4 -6 6 -15 q2 -2 2 -6v-10q0 -590 22 -961q2 -18 -12 -33.5t-33.5 -17.5t-35 12.5t-17.5 34.5q-8 119 -12 252q-23 -94 -45 -137q-39 -76 -105 -119q-68 -43 -143 -43q-78 -2 -144.5 42t-103.5 126q-49 111 -55 432zM269 1109.5q-5 19.5 7 37.5l62 104q37 55 72 68q49 16 100 -35 q31 -31 90 -115q10 -18 7 -37.5t-20.5 -30.5t-37 -8t-31.5 19q-53 78 -78 102l-4 5q-6 -8 -14 -21l-64 -104q-10 -16 -29.5 -21.5t-37 6t-22.5 31z" />
<glyph unicode="&#xfc;" horiz-adv-x="823" d="M74 563q-4 266 16 438q2 20 18.5 33t37 10.5t32.5 -19t10 -36.5q-20 -164 -16 -424q6 -301 47 -393q49 -113 156 -111q49 0 92 28t72 81q29 57 63 252q27 150 41 278q4 27 14 220q0 10 2 43v16v2v4q0 2 3 6q0 4 2 6q8 18 24 27q20 8 41 0q12 -6 21 -18q4 -6 6 -15 q2 -2 2 -6v-10q0 -590 22 -961q2 -18 -12 -33.5t-33.5 -17.5t-35 12.5t-17.5 34.5q-8 119 -12 252q-23 -94 -45 -137q-39 -76 -105 -119q-68 -43 -143 -43q-78 -2 -144.5 42t-103.5 126q-49 111 -55 432zM305 1118.5q0 20.5 14.5 34.5t35 14t34.5 -14t14 -34.5t-14 -35 t-34.5 -14.5t-35 14.5t-14.5 35zM481 1120.5q0 20.5 14.5 34.5t35 14t35 -14t14.5 -34.5t-14.5 -35t-35 -14.5t-35 14.5t-14.5 35z" />
<glyph unicode="&#xfd;" horiz-adv-x="811" d="M-41 -351.5q6 19.5 23.5 30t37.5 4.5q100 -31 181 43q74 66 114 190l39 117q-55 166 -151 481l-140 457q-6 18 3.5 36.5t29 24.5t38 -3t24.5 -30l250 -811q199 584 266 805q6 20 24.5 29.5t38 3.5t28.5 -24.5t3 -36.5q-66 -215 -204 -623t-154 -459q-49 -147 -144 -231 q-121 -111 -274 -64q-18 6 -28.5 23.5t-4.5 37zM350.5 1089.5q2.5 20.5 16.5 32.5q82 72 127 123q12 16 32.5 18.5t36 -11t17.5 -34t-13 -34.5q-49 -59 -135 -135q-16 -14 -36.5 -12.5t-34 17t-11 36z" />
<glyph unicode="&#xfe;" horiz-adv-x="868" d="M127 -295v1092v573q0 20 14.5 34.5t35 14.5t34.5 -14t14 -35v-444q88 76 195 88q225 25 336 -150q94 -150 57 -360q-37 -213 -186 -336q-168 -135 -402 -80v-383q0 -20 -14 -34.5t-34.5 -14.5t-35 14.5t-14.5 34.5zM225 188q4 0 8 -2q195 -51 330 60q121 98 154 276 q31 172 -43 291q-78 121 -242 102q-117 -12 -207 -135v-592z" />
<glyph unicode="&#xff;" horiz-adv-x="811" d="M-41 -351.5q6 19.5 23.5 30t37.5 4.5q100 -31 181 43q74 66 114 190l39 117q-55 166 -151 481l-140 457q-6 18 3.5 36.5t29 24.5t38 -3t24.5 -30l250 -811q199 584 266 805q6 20 24.5 29.5t38 3.5t28.5 -24.5t3 -36.5q-66 -215 -204 -623t-154 -459q-49 -147 -144 -231 q-121 -111 -274 -64q-18 6 -28.5 23.5t-4.5 37zM301 1118.5q0 20.5 14.5 34.5t35 14t34.5 -14t14 -34.5t-14 -35t-34.5 -14.5t-35 14.5t-14.5 35zM459 1126.5q0 20.5 14 35t34.5 14.5t35 -14.5t14.5 -35t-14.5 -35t-35 -14.5t-34.5 14.5t-14 35z" />
<glyph unicode="&#x152;" horiz-adv-x="1695" d="M178 561q-20 270 70 512q90 240 252 338q4 4 12 8l14 6l9 5q4 2 10 2q153 59 282 -19q401 10 764 10q20 0 34.5 -14t14.5 -34.5t-14 -35t-35 -14.5q-315 0 -657 -8q131 -164 166 -455q4 -39 6 -78q20 0 512 -14q20 0 33.5 -15.5t13.5 -36t-15.5 -33.5t-35.5 -13 q-489 14 -506 14q0 -201 -55 -362q-47 -143 -129 -232q289 6 696 6q20 0 34.5 -14t14.5 -34.5t-14.5 -35t-34.5 -14.5q-489 0 -823 -8q-10 0 -21 4q-12 -6 -26 -8q-256 -68 -418 125q-135 162 -154 448zM276 567q18 -256 132 -393q119 -143 317 -92q158 41 236 272 q55 166 49 375v6v4q-2 55 -9 113q-33 274 -153 416q-117 135 -281 67q-143 -74 -227 -295q-82 -219 -64 -473z" />
<glyph unicode="&#x153;" horiz-adv-x="1660" d="M41 557q14 123 61.5 231.5t137.5 186.5t204 84q12 6 27 4q215 -23 324 -217q39 82 107.5 128t154.5 52q113 8 222.5 -52.5t178.5 -172.5q37 -57 60 -115q23 -51 26 -90q8 -61 -24 -96q-8 -10 -21 -15q-6 -2 -14 -4t-25 -4q-27 -4 -74 -6q-78 -6 -210 -10q-154 -4 -308 -6 q-10 -115 -55 -215q59 -102 165.5 -147.5t214 -30t203 90t132.5 191.5q6 20 24.5 29.5t38 3.5t28.5 -24.5t3 -37.5q-43 -135 -152.5 -227t-236.5 -118.5t-259 16t-216 157.5q-141 -197 -379 -161q-98 14 -172 71.5t-112 140t-51 175t-3 188.5zM139 547q-20 -182 47.5 -314.5 t208.5 -152.5q158 -25 260 92q102 115 117 303q8 102 -14 195q-4 8 -4 16q-29 109 -98.5 183.5t-172.5 91.5h-12q-127 4 -219 -116t-113 -298zM852 692q16 -68 20 -139q150 2 299 6q133 4 209 10q43 2 68 4v11q-4 25 -21 63q-20 51 -51 101q-57 92 -143 139t-170 41 q-80 -4 -138.5 -62.5t-72.5 -173.5z" />
<glyph unicode="&#x2000;" horiz-adv-x="867" />
<glyph unicode="&#x2001;" horiz-adv-x="1734" />
<glyph unicode="&#x2002;" horiz-adv-x="867" />
<glyph unicode="&#x2003;" horiz-adv-x="1734" />
<glyph unicode="&#x2004;" horiz-adv-x="578" />
<glyph unicode="&#x2005;" horiz-adv-x="433" />
<glyph unicode="&#x2006;" horiz-adv-x="289" />
<glyph unicode="&#x2007;" horiz-adv-x="289" />
<glyph unicode="&#x2008;" horiz-adv-x="216" />
<glyph unicode="&#x2009;" horiz-adv-x="346" />
<glyph unicode="&#x200a;" horiz-adv-x="96" />
<glyph unicode="&#x2010;" horiz-adv-x="557" d="M57 532.5q-2 20.5 12.5 35t34.5 16.5q174 10 359 10q20 0 34.5 -14.5t14.5 -35t-14.5 -34.5t-34.5 -14q-180 0 -354 -11q-20 -2 -35 12.5t-17 35z" />
<glyph unicode="&#x2011;" horiz-adv-x="557" d="M57 532.5q-2 20.5 12.5 35t34.5 16.5q174 10 359 10q20 0 34.5 -14.5t14.5 -35t-14.5 -34.5t-34.5 -14q-180 0 -354 -11q-20 -2 -35 12.5t-17 35z" />
<glyph unicode="&#x2012;" horiz-adv-x="557" d="M57 532.5q-2 20.5 12.5 35t34.5 16.5q174 10 359 10q20 0 34.5 -14.5t14.5 -35t-14.5 -34.5t-34.5 -14q-180 0 -354 -11q-20 -2 -35 12.5t-17 35z" />
<glyph unicode="&#x2013;" horiz-adv-x="1125" d="M56.5 532.5q-4.5 20.5 28 35t77.5 16.5q392 10 808 10q45 0 77.5 -14.5t32.5 -35t-32.5 -34.5t-77.5 -14q-405 0 -796 -11q-45 -2 -79 12.5t-38.5 35z" />
<glyph unicode="&#x2014;" horiz-adv-x="2149" d="M57 532.5q-9 20.5 56.5 35t155.5 16.5q782 10 1615 10q90 0 155 -14.5t65 -35t-65 -34.5t-155 -14q-810 0 -1593 -11q-90 -2 -157.5 12.5t-76.5 35z" />
<glyph unicode="&#x2018;" horiz-adv-x="325" d="M111.5 1232q15.5 95 93.5 200q10 16 30.5 19t37 -8t19.5 -32t-9 -37q-61 -86 -73.5 -157.5t23.5 -169.5q8 -18 0 -38t-26.5 -27t-37.5 1t-26 27q-47 127 -31.5 222z" />
<glyph unicode="&#x2019;" horiz-adv-x="323" d="M78 970.5q0 20.5 14 35.5q70 70 85.5 170t-36.5 180q-12 16 -7 36.5t21.5 32t37 6t30.5 -21.5q72 -117 51.5 -249t-112.5 -224q-14 -14 -35 -14t-35 14t-14 34.5z" />
<glyph unicode="&#x201c;" horiz-adv-x="526" d="M53 981q0 152 28 266.5t118 208.5q12 14 32.5 14t36 -13t15 -34t-14.5 -37q-70 -74 -93 -169t-23 -236q0 -20 -14.5 -34.5t-35 -14.5t-35 14.5t-14.5 34.5zM250 954q-29 236 141 461q12 16 31.5 19.5t36 -9t19.5 -32t-9 -35.5q-145 -195 -121 -391q2 -20 -10 -37 t-32.5 -19t-37 10.5t-18.5 32.5z" />
<glyph unicode="&#x201d;" horiz-adv-x="462" d="M4 970.5q-2 20.5 10 37.5q68 86 91.5 172t13.5 202q-2 20 11 36t33.5 18t36 -11.5t17.5 -33.5q12 -133 -16.5 -237.5t-108.5 -207.5q-12 -16 -32.5 -18t-37 10t-18.5 32.5zM183 934.5q-3 19.5 10 36.5q80 109 110.5 204t5.5 203q-6 18 5.5 36t31 23t36.5 -6.5t21 -31.5 q33 -133 -5 -249t-128 -237q-12 -16 -31.5 -19t-36 9t-19.5 31.5z" />
<glyph unicode="&#x202f;" horiz-adv-x="346" />
<glyph unicode="&#x205f;" horiz-adv-x="433" />
<glyph unicode="&#x20ac;" horiz-adv-x="1323" d="M84 851.5q0 20.5 15.5 34t35.5 13.5q94 -4 174 -6q18 96 53 184q47 127 146.5 223.5t212.5 126.5q127 35 236.5 -26.5t166.5 -220.5q6 -18 -2 -37t-27.5 -26t-38 1t-26.5 29q-45 125 -119.5 167t-162.5 19q-90 -25 -171 -103.5t-124 -189.5q-27 -72 -43 -149h69 q20 0 34.5 -14.5t14.5 -35t-14 -34.5t-35 -14h-86q-10 -86 -6 -170q8 0 39 2t47 2q20 0 35.5 -13.5t15.5 -34t-13 -36t-34 -15.5l-80 -4q25 -160 105 -278q88 -131 217 -170q166 -51 293 80q106 111 168 315q6 18 23.5 28.5t37 4.5t29.5 -23.5t4 -38.5q-68 -227 -191 -354 q-170 -176 -393 -106q-162 49 -270 211q-94 139 -121 329q-86 -2 -152 0q-20 0 -33.5 15.5t-13.5 36t16 34t36 13.5q61 -2 137 0q-4 86 6 174q-78 2 -164 6q-20 0 -33.5 15t-13.5 35.5z" />
<glyph unicode="&#x2122;" horiz-adv-x="1456" d="M133 1372.5q0 20.5 15.5 33.5t35.5 13q309 -8 502 27q20 2 36.5 -9.5t19.5 -32t-8 -36.5t-32 -20q-109 -18 -235 -25q23 -291 -12 -539q-4 -20 -20.5 -32.5t-36 -9.5t-32 19.5t-10.5 35.5q35 240 13 522q-82 0 -189 2q-20 0 -33.5 15.5t-13.5 36zM754 1391q-2 20 9 36.5 t32 20.5q35 6 51 -27q12 -8 16 -18q2 -2 92 -205l35 -78l47 107q37 90 60 137l22 47q6 12 11.5 18.5t11.5 10.5q20 16 45 10q10 -2 17 -7t9 -9l5 -4q2 -6 6 -13q4 -8 8 -20q8 -23 20 -64q16 -45 58 -186l59 -201q35 -115 37 -123q8 -20 0 -38.5t-27.5 -25.5t-38 1t-24.5 26 q-12 29 -41 132l-60 200l-49 164l-39 -94l-59 -135q-12 -31 -20 -47q-6 -10 -11 -17q-2 -6 -6 -10l-8 -8q-14 -10 -31 -10q-10 0 -19 4t-14 8l-4 4q-4 4 -7 9t-9 13l-18 41l-37 80q6 -174 -23 -334q-4 -20 -20.5 -31.5t-37 -8t-31.5 19.5t-9 37q49 270 -8 588z" />
<glyph unicode="&#x25fc;" horiz-adv-x="1034" d="M0 0v1034h1034v-1034h-1034z" />
</font>
</defs>
</svg>
